<svg width="207" height="48" viewBox="0 0 207 48" fill="none" xmlns="http://www.w3.org/2000/svg">
<path d="M45.6381 25.9647C45.4946 27.9631 45.3139 30.5833 45.282 30.9341C45.0109 34.2505 44.7505 37.5776 44.4529 40.8941C44.2118 42.8363 43.2761 44.6257 41.8185 45.9318C40.361 47.238 38.4801 47.9726 36.5231 48H31.9417C31.8119 48.0012 31.6833 47.9753 31.564 47.924C31.4448 47.8728 31.3375 47.7972 31.249 47.7023C31.1605 47.6073 31.0928 47.4949 31.0501 47.3723C31.0074 47.2497 30.9907 47.1196 31.001 46.9902L31.2083 44.3328L32.1065 32.5392C33.9543 32.1297 35.7669 31.5752 37.5276 30.8809C38.9969 30.3 40.4185 29.6052 41.7795 28.8028C43.1603 27.9927 44.4534 27.0416 45.6381 25.9647Z" fill="white"/>
<path d="M0.835938 25.9647C0.979438 27.9631 1.16014 30.5833 1.19203 30.9341C1.46309 34.2505 1.72351 37.5776 2.02646 40.8941C2.26527 42.8363 3.19958 44.6263 4.65647 45.9327C6.11337 47.2391 7.9942 47.9735 9.95088 48H14.5323C14.6621 48.0012 14.7907 47.9753 14.91 47.924C15.0292 47.8728 15.1365 47.7972 15.225 47.7023C15.3135 47.6073 15.3812 47.4949 15.4239 47.3723C15.4666 47.2497 15.4833 47.1196 15.473 46.9902L15.271 44.3328L14.3516 32.5551C12.5038 32.1456 10.6911 31.5911 8.93043 30.8969C7.46118 30.316 6.03957 29.6212 4.67856 28.8188C3.30254 28.0027 2.01479 27.0463 0.835938 25.9647Z" fill="white"/>
<path d="M25.511 31.7897C25.5125 32.0857 25.4546 32.379 25.3409 32.6523C25.2272 32.9256 25.0599 33.1733 24.8488 33.3809C24.6378 33.5885 24.3873 33.7517 24.1122 33.8608C23.837 33.97 23.5428 34.023 23.2469 34.0166C22.9507 34.0244 22.6559 33.9729 22.38 33.865C22.104 33.7572 21.8524 33.5953 21.6399 33.3888C21.4275 33.1823 21.2585 32.9353 21.1429 32.6625C21.0273 32.3897 20.9674 32.0966 20.9668 31.8003C20.9668 31.4973 20.9668 31.1944 20.9668 30.8915C20.9668 30.5566 20.9668 30.2271 20.9668 29.8923C20.9744 29.6049 21.0386 29.3219 21.1557 29.0594C21.2729 28.7969 21.4407 28.5601 21.6496 28.3626C21.8584 28.1651 22.1042 28.0108 22.3728 27.9085C22.6415 27.8061 22.9276 27.7578 23.215 27.7663H23.2894C23.5767 27.7578 23.8629 27.8061 24.1315 27.9085C24.4001 28.0108 24.6459 28.1651 24.8548 28.3626C25.0636 28.5601 25.2314 28.7969 25.3486 29.0594C25.4658 29.3219 25.53 29.6049 25.5376 29.8923C25.5376 30.5251 25.511 31.1566 25.511 31.7897Z" fill="white"/>
<path d="M46.473 21.6703C46.4773 21.7944 46.4537 21.9179 46.4039 22.0317C45.5323 22.9511 40.0739 28.638 28.0677 30.073V29.8073C28.0541 29.1959 27.919 28.5933 27.6703 28.0346C27.4216 27.4758 27.0643 26.9721 26.6192 26.5527C26.1741 26.1334 25.6501 25.8067 25.0776 25.5916C24.5051 25.3766 23.8955 25.2776 23.2844 25.3003H23.1409C22.5294 25.2761 21.9192 25.3742 21.3461 25.5887C20.7729 25.8032 20.2483 26.1298 19.8029 26.5494C19.3575 26.9691 19.0003 27.4734 18.7521 28.0328C18.5039 28.5922 18.3698 29.1954 18.3575 29.8073C18.3575 29.8976 18.3575 29.9827 18.3575 30.073C6.40446 28.638 0.940812 22.9511 0.0691792 22.0317C0.0218906 21.9171 -0.00161642 21.7942 8.63103e-05 21.6703C8.63103e-05 18.9331 8.63103e-05 16.1907 8.63103e-05 13.4535C0.00146102 12.4984 0.181731 11.552 0.53157 10.6632C1.08939 9.29283 2.04668 8.122 3.27893 7.30303C4.51118 6.48406 5.96136 6.05484 7.44085 6.07122H11.4908C11.724 6.06867 11.9499 6.15338 12.1239 6.30874C12.2979 6.4641 12.4076 6.67889 12.4315 6.91096L13.2181 17.243L10.5128 17.2855C11.4057 17.7585 15.4556 19.5337 23.2365 19.6559C31.0121 19.5337 35.0727 17.7585 35.9921 17.2855L33.2816 17.243L34.0416 6.91096C34.059 6.67595 34.1645 6.45617 34.3369 6.29556C34.5093 6.13495 34.736 6.04534 34.9717 6.04464H39.0216C40.5011 6.02827 41.9513 6.45748 43.1835 7.27645C44.4158 8.09543 45.3731 9.26626 45.9309 10.6367C46.2807 11.5254 46.461 12.4718 46.4624 13.4269C46.4783 16.1907 46.4571 18.9331 46.473 21.6703Z" fill="white"/>
<path d="M55.3433 47.58C54.3345 47.6 53.3319 47.4193 52.3936 47.0485C51.5492 46.7031 50.7895 46.1791 50.1666 45.5125C49.5526 44.8499 49.0709 44.076 48.7476 43.2325C48.4046 42.3261 48.2351 41.3633 48.248 40.3943C48.2202 39.2258 48.5002 38.0705 49.0599 37.0443C49.6196 36.0182 50.4394 35.1573 51.4369 34.548C53.5628 33.1307 56.9679 32.1882 61.652 31.7205C61.6416 30.7977 61.311 29.9072 60.7166 29.2013C60.1603 28.5812 59.2249 28.2694 57.9103 28.2659C56.8687 28.2698 55.8366 28.4643 54.865 28.8399C53.745 29.2837 52.6626 29.817 51.6282 30.4343L49.7521 26.9956C49.6634 26.8328 49.6077 26.654 49.5883 26.4695C49.5689 26.2851 49.5861 26.0986 49.639 25.9208C49.6918 25.7431 49.7792 25.5775 49.8962 25.4336C50.0132 25.2897 50.1575 25.1703 50.3208 25.0823C51.474 24.4716 52.6736 23.9527 53.9083 23.5304C55.6296 22.9449 57.4369 22.6521 59.255 22.664C62.327 22.664 64.669 23.5357 66.2812 25.2789C67.8934 27.0222 68.7012 29.7328 68.7048 33.4106V45.6348C68.7034 46.006 68.5549 46.3615 68.2919 46.6235C68.029 46.8855 67.6729 47.0326 67.3017 47.0326H62.9488L62.4705 44.5877H62.2791C61.3143 45.4496 60.2425 46.1838 59.0902 46.7721C57.9231 47.335 56.6387 47.6119 55.3433 47.58ZM57.7403 42.111C58.4638 42.13 59.1782 41.9458 59.8024 41.5795C60.4656 41.1557 61.0774 40.6563 61.6254 40.0914V35.9246C59.1452 36.2789 57.4196 36.7909 56.4488 37.4605C56.0245 37.7058 55.6696 38.055 55.4176 38.4752C55.1656 38.8955 55.0248 39.3731 55.0085 39.8629C54.9828 40.1857 55.0374 40.5099 55.1672 40.8066C55.297 41.1033 55.498 41.3633 55.7525 41.5636C56.3385 41.9561 57.0359 42.1482 57.7403 42.111Z" fill="white"/>
<path d="M79.0739 47.5801C78.0652 47.6 77.0625 47.4194 76.1242 47.0486C75.2702 46.6997 74.5029 46.1682 73.876 45.4913C73.2617 44.8299 72.7816 44.0556 72.4623 43.2113C72.1163 42.3093 71.9449 41.3498 71.9574 40.3838C71.9268 39.2178 72.2028 38.0642 72.7577 37.0383C73.3126 36.0124 74.1271 35.15 75.1197 34.5375C77.2456 33.1202 80.6507 32.1777 85.3348 31.71C85.3244 30.7872 84.9938 29.8967 84.3994 29.1907C83.8396 28.5707 82.9059 28.2589 81.5985 28.2553C80.5568 28.2585 79.5245 28.4531 78.5531 28.8293C77.4309 29.272 76.3467 29.8053 75.311 30.4238L73.4349 26.9851C73.3462 26.8222 73.2905 26.6434 73.2711 26.459C73.2517 26.2745 73.2689 26.0881 73.3218 25.9103C73.3746 25.7325 73.462 25.5669 73.579 25.423C73.6961 25.2791 73.8403 25.1597 74.0036 25.0718C75.1581 24.4554 76.3594 23.9311 77.5964 23.5039C79.3177 22.9185 81.125 22.6256 82.9431 22.6376C86.0151 22.6376 88.3572 23.5092 89.9693 25.2525C91.5815 26.9957 92.3894 29.7063 92.3929 33.3842V45.6083C92.3915 45.9795 92.243 46.335 91.9801 46.597C91.7171 46.859 91.361 47.0061 90.9898 47.0061H86.6316L86.1533 44.5612H85.962C84.9888 45.425 83.908 46.1593 82.7465 46.7456C81.6043 47.3068 80.3465 47.5926 79.0739 47.5801ZM81.4762 42.1111C82.198 42.1293 82.9105 41.9452 83.5331 41.5796C84.1963 41.1558 84.8081 40.6564 85.3561 40.0915V35.9246C82.8758 36.279 81.1503 36.791 80.1794 37.4606C79.7551 37.7058 79.4003 38.055 79.1483 38.4753C78.8963 38.8956 78.7555 39.3732 78.7391 39.8629C78.7149 40.1856 78.7701 40.5093 78.8998 40.8058C79.0295 41.1022 79.2298 41.3624 79.4832 41.5637C80.071 41.9566 80.7702 42.1486 81.4762 42.1111Z" fill="white"/>
<path d="M32.1713 5.79483C32.0922 5.32786 31.9602 4.8714 31.778 4.43423C31.2319 3.17219 30.3396 2.09059 29.2043 1.31462C28.069 0.538643 26.7372 0.100014 25.363 0.0494937C24.6561 0.0494937 23.9493 0.00697506 23.2371 0.00166023C22.5249 -0.00365461 21.8233 0.00166023 21.1111 0.0494937C19.7381 0.0994739 18.4075 0.538023 17.2738 1.31419C16.1401 2.09035 15.25 3.17227 14.7068 4.43423C14.5228 4.87121 14.3891 5.32767 14.3081 5.79483C14.3081 5.86924 14.2656 6.06589 14.2656 6.06589C17.1212 7.19427 20.1667 7.7644 23.2371 7.74537C26.3092 7.76443 29.3564 7.19431 32.2138 6.06589C32.2138 6.06589 32.1819 5.84798 32.1713 5.79483ZM23.2371 5.94896C21.5776 5.94912 19.9222 5.78713 18.2943 5.46531C18.5457 5.02897 18.8896 4.65297 19.3019 4.36375C19.7142 4.07452 20.1848 3.87907 20.6806 3.79114C21.2236 3.70564 21.7735 3.67183 22.3229 3.69016H24.13C24.6882 3.6703 25.247 3.70411 25.7988 3.79114C26.2916 3.88191 26.7588 4.07863 27.168 4.36769C27.5773 4.65675 27.9189 5.03126 28.1692 5.46531C26.5448 5.78621 24.8929 5.94819 23.2371 5.94896Z" fill="#FB5A77"/>
<path d="M105.026 47.58C103.644 47.5974 102.276 47.3012 101.024 46.7137C99.8232 46.1383 98.7717 45.2924 97.9523 44.2423C97.0557 43.0763 96.3884 41.7507 95.9859 40.3359C95.502 38.6356 95.2692 36.8737 95.2949 35.1061C95.2664 33.3293 95.5488 31.5612 96.1294 29.8816C96.6253 28.4588 97.3683 27.1346 98.3244 25.9699C99.2001 24.9307 100.287 24.09 101.513 23.5038C102.654 22.9396 103.908 22.6433 105.181 22.6375C106.322 22.5932 107.458 22.8247 108.492 23.3125C109.416 23.8025 110.27 24.4138 111.032 25.1302L110.745 21.4895V14.7875C110.745 14.4163 110.892 14.0602 111.154 13.7972C111.416 13.5343 111.772 13.3858 112.143 13.3844H117.793V45.6029C117.791 45.9732 117.644 46.3279 117.382 46.5898C117.12 46.8516 116.765 46.9993 116.395 47.0007H112.042L111.564 44.6516H111.367C110.514 45.5037 109.526 46.2094 108.444 46.7403C107.386 47.2848 106.216 47.5725 105.026 47.58ZM106.828 41.8241C107.553 41.8356 108.27 41.6695 108.917 41.3404C109.639 40.9312 110.254 40.3577 110.713 39.6663V29.9295C110.148 29.3971 109.478 28.9881 108.747 28.7283C108.114 28.5115 107.45 28.3985 106.78 28.3935C106.195 28.4103 105.622 28.5631 105.107 28.8399C104.591 29.1166 104.147 29.5097 103.809 29.9879C102.941 31.0509 102.509 32.7215 102.512 34.9998C102.512 37.3702 102.89 39.0923 103.639 40.1818C103.984 40.7072 104.459 41.1345 105.018 41.4222C105.576 41.71 106.2 41.8484 106.828 41.8241Z" fill="white"/>
<path d="M131.807 47.5801C130.312 47.5816 128.831 47.2966 127.444 46.7403C126.053 46.1908 124.788 45.3665 123.723 44.3167C122.619 43.1941 121.753 41.8599 121.177 40.3944C120.509 38.7037 120.182 36.8973 120.215 35.0796C120.181 33.2617 120.508 31.4552 121.177 29.7647C121.758 28.3028 122.63 26.9739 123.739 25.8583C124.802 24.8068 126.068 23.9823 127.459 23.4348C128.845 22.895 130.32 22.6245 131.807 22.6375C133.295 22.6355 134.769 22.9206 136.149 23.4773C137.529 24.0293 138.783 24.8535 139.838 25.9008C140.95 27.0148 141.824 28.344 142.405 29.8073C143.072 31.4983 143.399 33.3044 143.367 35.1221C143.398 36.9396 143.071 38.7455 142.405 40.4369C141.822 41.8995 140.949 43.2285 139.838 44.3433C138.782 45.3886 137.528 46.2126 136.149 46.7669C134.768 47.3144 133.293 47.5905 131.807 47.5801ZM131.807 41.8719C132.465 41.8988 133.118 41.7426 133.694 41.4208C134.269 41.099 134.743 40.6242 135.065 40.0489C135.804 38.8318 136.17 37.1896 136.17 35.1061C136.17 33.0227 135.804 31.3858 135.065 30.1687C134.72 29.6116 134.238 29.1519 133.666 28.833C133.093 28.5142 132.449 28.3469 131.794 28.3469C131.138 28.3469 130.494 28.5142 129.922 28.833C129.349 29.1519 128.867 29.6116 128.522 30.1687C127.8 31.3858 127.459 33.028 127.459 35.1061C127.459 37.1842 127.816 38.8265 128.522 40.0489C128.845 40.6291 129.324 41.1074 129.904 41.4296C130.485 41.7518 131.144 41.905 131.807 41.8719Z" fill="white"/>
<path d="M157.106 47.58C155.611 47.5805 154.13 47.2955 152.743 46.7403C151.352 46.1908 150.087 45.3665 149.022 44.3167C147.912 43.1955 147.041 41.8612 146.461 40.3944C145.792 38.7037 145.465 36.8973 145.499 35.0795C145.464 33.2617 145.791 31.4552 146.461 29.7647C147.042 28.3028 147.913 26.9738 149.022 25.8583C150.085 24.8068 151.351 23.9823 152.743 23.4347C154.13 22.8795 155.611 22.5945 157.106 22.595C158.594 22.593 160.068 22.8781 161.448 23.4347C162.828 23.9867 164.083 24.811 165.137 25.8583C166.249 26.9722 167.123 28.3015 167.704 29.7647C168.373 31.4552 168.7 33.2617 168.666 35.0795C168.7 36.8973 168.373 38.7037 167.704 40.3944C167.122 41.8569 166.248 43.1859 165.137 44.3008C164.081 45.3461 162.827 46.17 161.448 46.7243C160.07 47.2864 158.595 47.577 157.106 47.58ZM157.106 41.8719C157.765 41.8985 158.419 41.7423 158.995 41.4206C159.571 41.0989 160.047 40.6241 160.369 40.0489C161.103 38.8318 161.47 37.1895 161.47 35.1061C161.47 33.0227 161.103 31.3857 160.369 30.1686C160.024 29.6116 159.542 29.152 158.969 28.8333C158.396 28.5146 157.751 28.3473 157.095 28.3473C156.44 28.3473 155.795 28.5146 155.222 28.8333C154.649 29.152 154.167 29.6116 153.822 30.1686C153.104 31.3857 152.759 33.028 152.759 35.1061C152.759 37.1842 153.12 38.8265 153.822 40.0489C154.144 40.6291 154.623 41.1074 155.203 41.4296C155.784 41.7517 156.443 41.905 157.106 41.8719Z" fill="white"/>
<path d="M171.078 45.5977V24.62C171.078 24.2479 171.226 23.891 171.489 23.6279C171.752 23.3647 172.109 23.2169 172.481 23.2169H176.834L177.312 26.2835H177.514C178.484 25.3176 179.553 24.4571 180.703 23.7165C181.942 23.0171 183.338 22.6456 184.76 22.6372C186.182 22.6288 187.583 22.9839 188.83 23.6686C189.91 24.405 190.765 25.426 191.301 26.6184C192.314 25.5721 193.43 24.6318 194.633 23.8121C195.864 23.013 197.307 22.6036 198.774 22.6376C201.328 22.6376 203.206 23.4933 204.407 25.2046C205.609 26.916 206.211 29.2581 206.214 32.2308V45.603C206.213 45.9742 206.065 46.3297 205.802 46.5917C205.539 46.8537 205.183 47.0008 204.811 47.0008H199.135V33.1397C199.135 31.4177 198.901 30.2325 198.439 29.5947C198.176 29.2625 197.835 29.0006 197.447 28.8327C197.058 28.6648 196.634 28.5961 196.212 28.6327C195.027 28.6327 193.666 29.4034 192.135 30.934V47.0008H185.083V33.1397C185.083 31.4177 184.849 30.2325 184.386 29.5947C184.124 29.2625 183.783 29.0006 183.394 28.8327C183.006 28.6648 182.581 28.5961 182.16 28.6327C180.942 28.6327 179.598 29.4034 178.131 30.934V47.0008H172.481C172.109 47.0008 171.752 46.8529 171.489 46.5898C171.226 46.3267 171.078 45.9698 171.078 45.5977Z" fill="white"/>
</svg>
