<svg width="30" height="29" viewBox="0 0 30 29" fill="none" xmlns="http://www.w3.org/2000/svg">
<path d="M29.5798 14.1492C30.1228 13.552 30.0703 12.6367 29.4627 12.1053L16.0754 0.391343C15.4677 -0.140044 14.4935 -0.128912 13.8987 0.416438L0.465886 12.7298C-0.12897 13.2752 -0.158166 14.1893 0.401244 14.7708L0.738024 15.1216C1.29675 15.703 2.19987 15.7724 2.75391 15.2759L3.75781 14.3769V27.5387C3.75781 28.3463 4.41213 29 5.21907 29H10.4552C11.2622 29 11.9165 28.3463 11.9165 27.5387V18.3308H18.5952V27.5387C18.5836 28.3457 19.161 28.9994 19.9679 28.9994H25.5169C26.3239 28.9994 26.9782 28.3457 26.9782 27.5382V14.5622C26.9782 14.5622 27.2555 14.8052 27.5976 15.1058C27.939 15.4059 28.6562 15.1653 29.1992 14.5675L29.5798 14.1492Z" fill="#695CE3"/>
</svg>
