<svg width="1123" height="108" viewBox="0 0 1123 108" fill="none" xmlns="http://www.w3.org/2000/svg">
<g filter="url(#filter0_dd)">
<rect x="13.5" y="1.5" width="1096" height="81" rx="8.5" fill="white" stroke="#D7D7FF" stroke-width="3"/>
<rect x="1024" y="26.75" width="34" height="5.1" rx="2.55" fill="#695CE3"/>
<rect x="1029.1" y="36.95" width="23.8" height="5.1" rx="2.55" fill="#695CE3"/>
<rect x="1035.9" y="47.1501" width="10.2" height="5.1" rx="2.55" fill="#695CE3"/>
<path d="M147.702 30.9729L141.54 24.8109C141.2 24.4705 140.648 24.4705 140.308 24.8109L134.146 30.9729C133.805 31.3133 133.805 31.865 134.146 32.2054L140.308 38.3675C140.648 38.7079 141.2 38.7079 141.54 38.3675L147.702 32.2054C148.043 31.865 148.043 31.3133 147.702 30.9729Z" fill="#9595EE"/>
<path d="M166.013 23.666H152.808C152.078 23.666 151.487 24.2572 151.487 24.9867V38.1917C151.487 38.9212 152.078 39.5123 152.808 39.5123H166.013C166.742 39.5123 167.334 38.9212 167.334 38.1917V24.9867C167.334 24.2572 166.742 23.666 166.013 23.666ZM164.692 36.8711H154.129V26.3073H164.692V36.8711Z" fill="#9595EE"/>
<path d="M147.526 42.1538H134.321C133.591 42.1538 133 42.745 133 43.4745V56.6795C133 57.4089 133.591 58.0001 134.321 58.0001H147.526C148.255 58.0001 148.846 57.4089 148.846 56.6795V43.4745C148.846 42.7436 148.255 42.1538 147.526 42.1538ZM139.236 55.3588C139.464 54.9694 139.603 54.5222 139.603 54.0382C139.603 52.5793 138.421 51.3969 136.962 51.3969C136.478 51.3969 136.031 51.5366 135.641 51.7638V48.3902C136.031 48.6173 136.478 48.757 136.962 48.757C138.421 48.757 139.603 47.5747 139.603 46.1157C139.603 45.6318 139.464 45.1845 139.236 44.7951H142.61C142.383 45.1845 142.243 45.6318 142.243 46.1157C142.243 47.5747 143.425 48.757 144.884 48.757C145.368 48.757 145.816 48.6173 146.205 48.3902V51.7638C145.816 51.5366 145.368 51.3969 144.884 51.3969C143.425 51.3969 142.243 52.5793 142.243 54.0382C142.243 54.5222 142.383 54.9694 142.61 55.3588H139.236Z" fill="#9595EE"/>
<path d="M166.013 42.1538H152.808C152.078 42.1538 151.487 42.745 151.487 43.4745V50.0763V56.6781C151.487 57.4075 152.078 57.9987 152.808 57.9987H159.41H166.012C166.741 57.9987 167.332 57.4075 167.332 56.6781V43.473C167.334 42.7436 166.742 42.1538 166.013 42.1538ZM154.129 50.6237L159.957 44.7951H162.826L154.129 53.4922V50.6237ZM154.129 44.7951H156.222L154.129 46.8889V44.7951ZM164.692 46.6618V49.5288L158.864 55.3588H155.995L164.692 46.6618ZM164.692 55.3588H162.597L164.692 53.2636V55.3588Z" fill="#9595EE"/>
<path d="M140.924 52.7179C142.383 52.7179 143.566 51.5353 143.566 50.0766C143.566 48.6178 142.383 47.4353 140.924 47.4353C139.466 47.4353 138.283 48.6178 138.283 50.0766C138.283 51.5353 139.466 52.7179 140.924 52.7179Z" fill="#9595EE"/>
<line x1="194" y1="14" x2="194" y2="71" stroke="#9595EE" stroke-opacity="0.5" stroke-width="2" stroke-linejoin="round"/>
<rect x="931" y="16" width="56" height="46.1176" rx="5" fill="white"/>
<path d="M964.153 26.3871C959.088 21.3218 950.844 21.3218 945.779 26.3871C940.714 31.4534 940.714 39.6964 945.779 44.7628C950.289 49.2724 957.315 49.7555 962.377 46.2341C962.483 46.7381 962.727 47.2191 963.119 47.6111L970.495 54.9877C971.57 56.0605 973.308 56.0605 974.377 54.9877C975.451 53.9138 975.451 52.1767 974.377 51.1061L967 43.7273C966.611 43.3386 966.129 43.0937 965.625 42.9872C969.148 37.9242 968.665 30.9 964.153 26.3871ZM961.824 42.4338C958.043 46.2155 951.888 46.2155 948.108 42.4338C944.328 38.6522 944.328 32.4988 948.108 28.7171C951.888 24.9366 958.043 24.9366 961.824 28.7171C965.606 32.4988 965.606 38.6522 961.824 42.4338Z" fill="#695CE3"/>
<g opacity="0.4">
<path d="M212.221 49.2744C211.169 49.2744 210.193 49.0762 209.293 48.6798C208.394 48.2834 207.616 47.7421 206.961 47.056L208.104 45.7296C208.638 46.2937 209.263 46.7511 209.979 47.1018C210.711 47.4372 211.466 47.6049 212.244 47.6049C213.235 47.6049 214.005 47.3839 214.553 46.9417C215.102 46.4843 215.377 45.8897 215.377 45.1578C215.377 44.7767 215.308 44.4565 215.171 44.1973C215.049 43.9229 214.874 43.6942 214.645 43.5112C214.431 43.313 214.172 43.1377 213.867 42.9852C213.562 42.8327 213.235 42.6726 212.884 42.5049L210.734 41.5672C210.383 41.4148 210.025 41.2318 209.659 41.0184C209.293 40.8049 208.965 40.5457 208.676 40.2408C208.386 39.9359 208.15 39.5776 207.967 39.1659C207.784 38.739 207.692 38.2511 207.692 37.7022C207.692 37.1381 207.807 36.6121 208.035 36.1242C208.279 35.6363 208.607 35.217 209.019 34.8663C209.446 34.5004 209.941 34.2184 210.505 34.0201C211.085 33.8219 211.718 33.7228 212.404 33.7228C213.303 33.7228 214.134 33.8982 214.896 34.2488C215.659 34.5843 216.307 35.0264 216.84 35.5753L215.811 36.8103C215.354 36.3681 214.843 36.0251 214.279 35.7811C213.73 35.5219 213.105 35.3923 212.404 35.3923C211.565 35.3923 210.887 35.5906 210.368 35.987C209.865 36.3681 209.613 36.9018 209.613 37.5879C209.613 37.9538 209.682 38.2663 209.819 38.5255C209.972 38.7695 210.17 38.9906 210.414 39.1888C210.658 39.3717 210.925 39.5394 211.214 39.6919C211.504 39.8291 211.801 39.9587 212.106 40.0807L214.233 40.9955C214.66 41.1785 215.064 41.3919 215.445 41.6359C215.826 41.8646 216.154 42.139 216.429 42.4592C216.703 42.7641 216.917 43.13 217.069 43.5569C217.237 43.9686 217.321 44.4489 217.321 44.9977C217.321 45.5924 217.199 46.1489 216.955 46.6673C216.726 47.1856 216.391 47.643 215.948 48.0395C215.506 48.4206 214.973 48.7256 214.348 48.9543C213.722 49.1677 213.013 49.2744 212.221 49.2744ZM224.597 49.2744C223.85 49.2744 223.149 49.1448 222.493 48.8856C221.853 48.6112 221.289 48.23 220.801 47.7421C220.328 47.239 219.955 46.6291 219.68 45.9125C219.406 45.196 219.269 44.3803 219.269 43.4655C219.269 42.5507 219.406 41.735 219.68 41.0184C219.97 40.2865 220.344 39.669 220.801 39.1659C221.274 38.6628 221.807 38.2816 222.402 38.0224C222.997 37.748 223.614 37.6107 224.254 37.6107C224.956 37.6107 225.581 37.7327 226.13 37.9767C226.694 38.2206 227.159 38.5713 227.525 39.0287C227.906 39.4861 228.196 40.035 228.394 40.6753C228.592 41.3157 228.691 42.0323 228.691 42.8251C228.691 43.0233 228.684 43.2215 228.668 43.4197C228.668 43.6027 228.653 43.7628 228.623 43.9H221.121C221.197 45.0892 221.563 46.0345 222.219 46.7359C222.89 47.422 223.759 47.765 224.826 47.765C225.36 47.765 225.848 47.6888 226.29 47.5363C226.747 47.3686 227.182 47.1552 227.593 46.896L228.257 48.1309C227.769 48.4359 227.227 48.7027 226.633 48.9314C226.038 49.1601 225.36 49.2744 224.597 49.2744ZM221.098 42.5507H227.045C227.045 41.4224 226.801 40.5686 226.313 39.9892C225.84 39.3946 225.169 39.0973 224.3 39.0973C223.904 39.0973 223.523 39.1735 223.157 39.326C222.806 39.4785 222.486 39.7072 222.196 40.0121C221.906 40.3018 221.662 40.6601 221.464 41.087C221.281 41.5139 221.159 42.0018 221.098 42.5507ZM233.686 49.2744C232.756 49.2744 231.979 49 231.354 48.4511C230.744 47.9022 230.439 47.1247 230.439 46.1184C230.439 44.8986 230.98 43.9686 232.063 43.3282C233.145 42.6726 234.876 42.2152 237.254 41.956C237.254 41.6054 237.216 41.2623 237.14 40.9269C237.079 40.5915 236.964 40.2942 236.797 40.035C236.629 39.7758 236.393 39.5699 236.088 39.4175C235.798 39.2498 235.425 39.1659 234.967 39.1659C234.327 39.1659 233.725 39.2879 233.16 39.5318C232.596 39.7758 232.093 40.0502 231.651 40.3551L230.919 39.0515C231.438 38.7161 232.07 38.3959 232.817 38.091C233.564 37.7708 234.388 37.6107 235.287 37.6107C236.644 37.6107 237.628 38.03 238.238 38.8686C238.847 39.6919 239.152 40.7973 239.152 42.1847V49H237.597L237.437 47.6735H237.369C236.835 48.1157 236.263 48.4969 235.653 48.817C235.043 49.122 234.388 49.2744 233.686 49.2744ZM234.235 47.765C234.769 47.765 235.272 47.643 235.745 47.3991C236.217 47.1399 236.721 46.7664 237.254 46.2785V43.191C236.324 43.313 235.539 43.4578 234.899 43.6255C234.273 43.7933 233.763 43.9915 233.366 44.2202C232.985 44.4489 232.703 44.7157 232.52 45.0206C232.352 45.3103 232.269 45.6305 232.269 45.9812C232.269 46.6215 232.459 47.0789 232.84 47.3534C233.221 47.6278 233.686 47.765 234.235 47.765ZM242.649 49V37.8852H244.205L244.365 39.8977H244.433C244.814 39.1964 245.272 38.6399 245.805 38.2282C246.354 37.8166 246.949 37.6107 247.589 37.6107C248.031 37.6107 248.428 37.687 248.779 37.8394L248.413 39.4861C248.23 39.4251 248.062 39.3794 247.909 39.3489C247.757 39.3184 247.566 39.3031 247.338 39.3031C246.865 39.3031 246.37 39.4937 245.851 39.8749C245.348 40.256 244.906 40.9193 244.525 41.8646V49H242.649ZM254.746 49.2744C254.014 49.2744 253.328 49.1448 252.687 48.8856C252.047 48.6265 251.49 48.2529 251.018 47.765C250.56 47.2619 250.194 46.652 249.92 45.9354C249.661 45.2036 249.531 44.3803 249.531 43.4655C249.531 42.5354 249.676 41.7121 249.966 40.9955C250.255 40.2637 250.644 39.6462 251.132 39.143C251.62 38.6399 252.184 38.2587 252.825 37.9995C253.48 37.7403 254.166 37.6107 254.883 37.6107C255.615 37.6107 256.24 37.7403 256.758 37.9995C257.277 38.2587 257.734 38.5637 258.13 38.9143L257.17 40.1493C256.85 39.8596 256.507 39.6233 256.141 39.4403C255.79 39.2574 255.394 39.1659 254.951 39.1659C254.448 39.1659 253.983 39.2726 253.556 39.4861C253.129 39.6843 252.764 39.974 252.459 40.3551C252.154 40.7363 251.91 41.1937 251.727 41.7273C251.559 42.2457 251.475 42.8251 251.475 43.4655C251.475 44.1058 251.559 44.6852 251.727 45.2036C251.894 45.722 252.123 46.1717 252.413 46.5529C252.718 46.9188 253.084 47.2085 253.511 47.422C253.938 47.6202 254.403 47.7193 254.906 47.7193C255.424 47.7193 255.897 47.6126 256.324 47.3991C256.766 47.1704 257.162 46.9036 257.513 46.5986L258.336 47.8565C257.833 48.2987 257.277 48.6493 256.667 48.9085C256.057 49.1525 255.416 49.2744 254.746 49.2744ZM260.785 49V32.7166H262.66V37.1533L262.591 39.4403C263.125 38.9372 263.681 38.5103 264.261 38.1596C264.84 37.7937 265.519 37.6107 266.296 37.6107C267.47 37.6107 268.324 37.9767 268.858 38.7085C269.407 39.4403 269.681 40.5229 269.681 41.956V49H267.806V42.2076C267.806 41.1556 267.638 40.4009 267.303 39.9435C266.967 39.4708 266.433 39.2345 265.702 39.2345C265.122 39.2345 264.611 39.3794 264.169 39.669C263.727 39.9587 263.224 40.3856 262.66 40.9498V49H260.785ZM278.123 49V39.4175H276.614V37.9995L278.123 37.8852V36.1242C278.123 34.9807 278.382 34.0811 278.901 33.4255C279.434 32.7699 280.258 32.4421 281.371 32.4421C281.721 32.4421 282.049 32.4802 282.354 32.5565C282.674 32.6175 282.964 32.7013 283.223 32.808L282.812 34.2488C282.4 34.0659 281.981 33.9744 281.554 33.9744C280.517 33.9744 279.999 34.691 279.999 36.1242V37.8852H282.354V39.4175H279.999V49H278.123ZM288.58 49.2744C287.894 49.2744 287.238 49.1448 286.613 48.8856C286.003 48.6265 285.462 48.2529 284.989 47.765C284.517 47.2619 284.136 46.652 283.846 45.9354C283.571 45.2036 283.434 44.3803 283.434 43.4655C283.434 42.5354 283.571 41.7121 283.846 40.9955C284.136 40.2637 284.517 39.6462 284.989 39.143C285.462 38.6399 286.003 38.2587 286.613 37.9995C287.238 37.7403 287.894 37.6107 288.58 37.6107C289.266 37.6107 289.914 37.7403 290.524 37.9995C291.149 38.2587 291.698 38.6399 292.171 39.143C292.643 39.6462 293.017 40.2637 293.291 40.9955C293.581 41.7121 293.726 42.5354 293.726 43.4655C293.726 44.3803 293.581 45.2036 293.291 45.9354C293.017 46.652 292.643 47.2619 292.171 47.765C291.698 48.2529 291.149 48.6265 290.524 48.8856C289.914 49.1448 289.266 49.2744 288.58 49.2744ZM288.58 47.7193C289.053 47.7193 289.487 47.6202 289.884 47.422C290.28 47.2085 290.615 46.9188 290.89 46.5529C291.18 46.1717 291.401 45.722 291.553 45.2036C291.706 44.6852 291.782 44.1058 291.782 43.4655C291.782 42.8251 291.706 42.2457 291.553 41.7273C291.401 41.1937 291.18 40.7363 290.89 40.3551C290.615 39.974 290.28 39.6843 289.884 39.4861C289.487 39.2726 289.053 39.1659 288.58 39.1659C288.107 39.1659 287.673 39.2726 287.276 39.4861C286.88 39.6843 286.537 39.974 286.247 40.3551C285.973 40.7363 285.759 41.1937 285.607 41.7273C285.454 42.2457 285.378 42.8251 285.378 43.4655C285.378 44.1058 285.454 44.6852 285.607 45.2036C285.759 45.722 285.973 46.1717 286.247 46.5529C286.537 46.9188 286.88 47.2085 287.276 47.422C287.673 47.6202 288.107 47.7193 288.58 47.7193ZM296.653 49V37.8852H298.208L298.368 39.8977H298.437C298.818 39.1964 299.275 38.6399 299.809 38.2282C300.358 37.8166 300.952 37.6107 301.593 37.6107C302.035 37.6107 302.431 37.687 302.782 37.8394L302.416 39.4861C302.233 39.4251 302.065 39.3794 301.913 39.3489C301.761 39.3184 301.57 39.3031 301.341 39.3031C300.869 39.3031 300.373 39.4937 299.855 39.8749C299.352 40.256 298.909 40.9193 298.528 41.8646V49H296.653ZM312.064 49.2744C311.272 49.2744 310.517 49.1296 309.8 48.8399C309.084 48.5502 308.459 48.1843 307.925 47.7421L308.863 46.4843C309.351 46.8807 309.846 47.2009 310.349 47.4448C310.868 47.6888 311.462 47.8108 312.133 47.8108C312.865 47.8108 313.414 47.643 313.78 47.3076C314.146 46.9722 314.329 46.5605 314.329 46.0726C314.329 45.783 314.252 45.5314 314.1 45.3179C313.947 45.1045 313.749 44.9215 313.505 44.769C313.277 44.6013 313.01 44.4565 312.705 44.3345C312.4 44.2125 312.095 44.0906 311.79 43.9686C311.394 43.8314 310.997 43.6789 310.601 43.5112C310.204 43.3282 309.846 43.1148 309.526 42.8708C309.221 42.6116 308.969 42.3143 308.771 41.9789C308.573 41.6435 308.474 41.2394 308.474 40.7668C308.474 40.3246 308.558 39.913 308.725 39.5318C308.908 39.1354 309.16 38.8 309.48 38.5255C309.816 38.2359 310.22 38.0148 310.692 37.8623C311.165 37.6946 311.699 37.6107 312.293 37.6107C312.994 37.6107 313.635 37.7327 314.214 37.9767C314.809 38.2206 315.32 38.5179 315.747 38.8686L314.855 40.0578C314.473 39.7681 314.077 39.5318 313.665 39.3489C313.254 39.1659 312.804 39.0744 312.316 39.0744C311.615 39.0744 311.096 39.2345 310.761 39.5547C310.441 39.8749 310.281 40.2484 310.281 40.6753C310.281 40.9345 310.349 41.1632 310.486 41.3614C310.624 41.5444 310.807 41.7121 311.035 41.8646C311.264 42.0018 311.523 42.1314 311.813 42.2533C312.118 42.3601 312.43 42.4744 312.751 42.5964C313.147 42.7489 313.543 42.909 313.94 43.0767C314.351 43.2444 314.717 43.4578 315.038 43.717C315.358 43.961 315.617 44.2659 315.815 44.6318C316.029 44.9977 316.135 45.4399 316.135 45.9583C316.135 46.4157 316.044 46.8426 315.861 47.239C315.693 47.6354 315.434 47.9861 315.083 48.291C314.748 48.596 314.321 48.8323 313.803 49C313.299 49.183 312.72 49.2744 312.064 49.2744ZM323.247 49.2744C322.5 49.2744 321.798 49.1448 321.143 48.8856C320.502 48.6112 319.938 48.23 319.45 47.7421C318.978 47.239 318.604 46.6291 318.33 45.9125C318.055 45.196 317.918 44.3803 317.918 43.4655C317.918 42.5507 318.055 41.735 318.33 41.0184C318.619 40.2865 318.993 39.669 319.45 39.1659C319.923 38.6628 320.456 38.2816 321.051 38.0224C321.646 37.748 322.263 37.6107 322.904 37.6107C323.605 37.6107 324.23 37.7327 324.779 37.9767C325.343 38.2206 325.808 38.5713 326.174 39.0287C326.555 39.4861 326.845 40.035 327.043 40.6753C327.241 41.3157 327.34 42.0323 327.34 42.8251C327.34 43.0233 327.333 43.2215 327.317 43.4197C327.317 43.6027 327.302 43.7628 327.272 43.9H319.77C319.847 45.0892 320.213 46.0345 320.868 46.7359C321.539 47.422 322.408 47.765 323.475 47.765C324.009 47.765 324.497 47.6888 324.939 47.5363C325.396 47.3686 325.831 47.1552 326.243 46.896L326.906 48.1309C326.418 48.4359 325.877 48.7027 325.282 48.9314C324.687 49.1601 324.009 49.2744 323.247 49.2744ZM319.748 42.5507H325.694C325.694 41.4224 325.45 40.5686 324.962 39.9892C324.489 39.3946 323.818 39.0973 322.949 39.0973C322.553 39.0973 322.172 39.1735 321.806 39.326C321.455 39.4785 321.135 39.7072 320.845 40.0121C320.556 40.3018 320.312 40.6601 320.113 41.087C319.93 41.5139 319.809 42.0018 319.748 42.5507ZM330.087 49V37.8852H331.642L331.802 39.8977H331.871C332.252 39.1964 332.709 38.6399 333.243 38.2282C333.792 37.8166 334.386 37.6107 335.027 37.6107C335.469 37.6107 335.865 37.687 336.216 37.8394L335.85 39.4861C335.667 39.4251 335.499 39.3794 335.347 39.3489C335.195 39.3184 335.004 39.3031 334.775 39.3031C334.303 39.3031 333.807 39.4937 333.289 39.8749C332.786 40.256 332.343 40.9193 331.962 41.8646V49H330.087ZM340.998 49L336.995 37.8852H338.939L341.043 44.1973C341.211 44.7462 341.379 45.2951 341.546 45.8439C341.729 46.3928 341.905 46.9341 342.072 47.4677H342.164C342.332 46.9341 342.499 46.3928 342.667 45.8439C342.835 45.2951 343.002 44.7462 343.17 44.1973L345.274 37.8852H347.127L343.193 49H340.998ZM349.272 49V37.8852H351.147V49H349.272ZM350.232 35.5982C349.866 35.5982 349.554 35.4838 349.295 35.2551C349.051 35.0264 348.929 34.7367 348.929 34.3861C348.929 34.0201 349.051 33.7305 349.295 33.517C349.554 33.2883 349.866 33.174 350.232 33.174C350.598 33.174 350.903 33.2883 351.147 33.517C351.406 33.7305 351.536 34.0201 351.536 34.3861C351.536 34.7367 351.406 35.0264 351.147 35.2551C350.903 35.4838 350.598 35.5982 350.232 35.5982ZM359.291 49.2744C358.559 49.2744 357.873 49.1448 357.233 48.8856C356.592 48.6265 356.036 48.2529 355.563 47.765C355.106 47.2619 354.74 46.652 354.465 45.9354C354.206 45.2036 354.077 44.3803 354.077 43.4655C354.077 42.5354 354.221 41.7121 354.511 40.9955C354.801 40.2637 355.19 39.6462 355.678 39.143C356.165 38.6399 356.73 38.2587 357.37 37.9995C358.026 37.7403 358.712 37.6107 359.428 37.6107C360.16 37.6107 360.785 37.7403 361.304 37.9995C361.822 38.2587 362.279 38.5637 362.676 38.9143L361.715 40.1493C361.395 39.8596 361.052 39.6233 360.686 39.4403C360.335 39.2574 359.939 39.1659 359.497 39.1659C358.994 39.1659 358.529 39.2726 358.102 39.4861C357.675 39.6843 357.309 39.974 357.004 40.3551C356.699 40.7363 356.455 41.1937 356.272 41.7273C356.104 42.2457 356.021 42.8251 356.021 43.4655C356.021 44.1058 356.104 44.6852 356.272 45.2036C356.44 45.722 356.669 46.1717 356.958 46.5529C357.263 46.9188 357.629 47.2085 358.056 47.422C358.483 47.6202 358.948 47.7193 359.451 47.7193C359.969 47.7193 360.442 47.6126 360.869 47.3991C361.311 47.1704 361.708 46.9036 362.058 46.5986L362.882 47.8565C362.378 48.2987 361.822 48.6493 361.212 48.9085C360.602 49.1525 359.962 49.2744 359.291 49.2744ZM369.344 49.2744C368.597 49.2744 367.896 49.1448 367.24 48.8856C366.6 48.6112 366.035 48.23 365.548 47.7421C365.075 47.239 364.701 46.6291 364.427 45.9125C364.152 45.196 364.015 44.3803 364.015 43.4655C364.015 42.5507 364.152 41.735 364.427 41.0184C364.717 40.2865 365.09 39.669 365.548 39.1659C366.02 38.6628 366.554 38.2816 367.148 38.0224C367.743 37.748 368.361 37.6107 369.001 37.6107C369.702 37.6107 370.327 37.7327 370.876 37.9767C371.44 38.2206 371.905 38.5713 372.271 39.0287C372.652 39.4861 372.942 40.035 373.14 40.6753C373.339 41.3157 373.438 42.0323 373.438 42.8251C373.438 43.0233 373.43 43.2215 373.415 43.4197C373.415 43.6027 373.4 43.7628 373.369 43.9H365.868C365.944 45.0892 366.31 46.0345 366.965 46.7359C367.636 47.422 368.505 47.765 369.573 47.765C370.106 47.765 370.594 47.6888 371.036 47.5363C371.494 47.3686 371.928 47.1552 372.34 46.896L373.003 48.1309C372.515 48.4359 371.974 48.7027 371.379 48.9314C370.785 49.1601 370.106 49.2744 369.344 49.2744ZM365.845 42.5507H371.791C371.791 41.4224 371.547 40.5686 371.059 39.9892C370.587 39.3946 369.916 39.0973 369.047 39.0973C368.65 39.0973 368.269 39.1735 367.903 39.326C367.552 39.4785 367.232 39.7072 366.943 40.0121C366.653 40.3018 366.409 40.6601 366.211 41.087C366.028 41.5139 365.906 42.0018 365.845 42.5507Z" fill="#3A3A3A"/>
<path d="M209.293 48.6798L209.697 47.7647L209.293 48.6798ZM206.961 47.056L206.203 46.4031L205.61 47.0906L206.238 47.7469L206.961 47.056ZM208.104 45.7296L208.831 45.0424L208.07 44.238L207.347 45.0767L208.104 45.7296ZM209.979 47.1018L209.54 48L209.551 48.0056L209.563 48.0109L209.979 47.1018ZM214.553 46.9417L215.181 47.7205L215.187 47.7152L215.194 47.7099L214.553 46.9417ZM215.171 44.1973L214.257 44.6034L214.271 44.6348L214.287 44.6652L215.171 44.1973ZM214.645 43.5112L213.964 44.244L213.991 44.2691L214.02 44.2921L214.645 43.5112ZM212.884 42.5049L213.315 41.6028L213.3 41.5953L213.284 41.5883L212.884 42.5049ZM210.734 41.5672L211.134 40.6506L211.133 40.6502L210.734 41.5672ZM207.967 39.1659L207.048 39.5599L207.053 39.572L207.967 39.1659ZM208.035 36.1242L207.141 35.677L207.135 35.6883L207.13 35.6998L208.035 36.1242ZM209.019 34.8663L209.667 35.6276L209.67 35.6256L209.019 34.8663ZM210.505 34.0201L210.182 33.074L210.174 33.0767L210.505 34.0201ZM214.896 34.2488L214.479 35.1573L214.486 35.1608L214.494 35.1642L214.896 34.2488ZM216.84 35.5753L217.609 36.2155L218.185 35.5238L217.557 34.8782L216.84 35.5753ZM215.811 36.8103L215.116 37.5293L215.89 38.2775L216.579 37.4505L215.811 36.8103ZM214.279 35.7811L213.852 36.6854L213.867 36.6924L213.882 36.699L214.279 35.7811ZM210.368 35.987L210.972 36.7841L210.976 36.7813L210.368 35.987ZM209.819 38.5255L208.936 38.9934L208.952 39.0251L208.971 39.0555L209.819 38.5255ZM210.414 39.1888L209.783 39.9649L209.798 39.9771L209.814 39.9888L210.414 39.1888ZM211.214 39.6919L210.749 40.5768L210.767 40.5866L210.786 40.5956L211.214 39.6919ZM212.106 40.0807L212.501 39.1621L212.49 39.157L212.478 39.1522L212.106 40.0807ZM214.233 40.9955L213.838 41.9141L213.839 41.9146L214.233 40.9955ZM215.445 41.6359L214.906 42.4781L214.918 42.4859L214.931 42.4934L215.445 41.6359ZM216.429 42.4592L215.669 43.11L215.677 43.1192L215.685 43.1281L216.429 42.4592ZM217.069 43.5569L216.127 43.8933L216.135 43.9139L216.143 43.9342L217.069 43.5569ZM216.955 46.6673L216.05 46.2415L216.045 46.2525L216.04 46.2636L216.955 46.6673ZM215.948 48.0395L216.601 48.7969L216.609 48.7905L216.616 48.784L215.948 48.0395ZM214.348 48.9543L214.671 49.9006L214.681 49.8971L214.691 49.8934L214.348 48.9543ZM212.221 48.2744C211.298 48.2744 210.46 48.1013 209.697 47.7647L208.89 49.5949C209.925 50.0512 211.04 50.2744 212.221 50.2744V48.2744ZM209.697 47.7647C208.913 47.4194 208.245 46.9528 207.684 46.3652L206.238 47.7469C206.987 48.5315 207.875 49.1474 208.89 49.5949L209.697 47.7647ZM207.718 47.709L208.861 46.3825L207.347 45.0767L206.203 46.4031L207.718 47.709ZM207.378 46.4168C207.996 47.0702 208.719 47.5982 209.54 48L210.419 46.2036C209.807 45.904 209.28 45.5172 208.831 45.0424L207.378 46.4168ZM209.563 48.0109C210.421 48.404 211.317 48.6049 212.244 48.6049V46.6049C211.615 46.6049 211.002 46.4704 210.396 46.1927L209.563 48.0109ZM212.244 48.6049C213.372 48.6049 214.394 48.354 215.181 47.7205L213.926 46.1629C213.615 46.4137 213.097 46.6049 212.244 46.6049V48.6049ZM215.194 47.7099C215.977 47.0573 216.377 46.1781 216.377 45.1578H214.377C214.377 45.6012 214.228 45.9113 213.913 46.1735L215.194 47.7099ZM216.377 45.1578C216.377 44.6609 216.288 44.1695 216.055 43.7294L214.287 44.6652C214.329 44.7435 214.377 44.8924 214.377 45.1578H216.377ZM216.085 43.7912C215.899 43.3743 215.626 43.0159 215.27 42.7303L214.02 44.2921C214.121 44.3724 214.198 44.4714 214.257 44.6034L216.085 43.7912ZM215.325 42.7784C215.032 42.5056 214.69 42.2787 214.314 42.0908L213.42 43.8796C213.654 43.9966 213.831 44.1204 213.964 44.244L215.325 42.7784ZM214.314 42.0908C214.004 41.9353 213.671 41.7727 213.315 41.6028L212.452 43.4071C212.799 43.5726 213.121 43.7301 213.42 43.8796L214.314 42.0908ZM213.284 41.5883L211.134 40.6506L210.334 42.4839L212.484 43.4215L213.284 41.5883ZM211.133 40.6502C210.822 40.515 210.499 40.3503 210.163 40.1546L209.155 41.8821C209.552 42.1133 209.945 42.3146 210.335 42.4843L211.133 40.6502ZM210.163 40.1546C209.878 39.9884 209.625 39.788 209.401 39.552L207.951 40.9295C208.306 41.3035 208.708 41.6214 209.155 41.8821L210.163 40.1546ZM209.401 39.552C209.195 39.3356 209.021 39.0746 208.881 38.7598L207.053 39.572C207.279 40.0805 207.577 40.5362 207.951 40.9295L209.401 39.552ZM208.886 38.772C208.765 38.49 208.692 38.1399 208.692 37.7022H206.692C206.692 38.3623 206.803 38.9879 207.048 39.5598L208.886 38.772ZM208.692 37.7022C208.692 37.2777 208.777 36.8974 208.941 36.5486L207.13 35.6998C206.836 36.3267 206.692 36.9984 206.692 37.7022H208.692ZM208.93 36.5714C209.114 36.2026 209.359 35.8904 209.667 35.6276L208.37 34.1051C207.856 34.5436 207.444 35.07 207.141 35.677L208.93 36.5714ZM209.67 35.6256C209.997 35.3453 210.382 35.1234 210.837 34.9636L210.174 33.0767C209.5 33.3133 208.895 33.6555 208.368 34.1071L209.67 35.6256ZM210.829 34.9663C211.293 34.8078 211.814 34.7228 212.404 34.7228V32.7228C211.621 32.7228 210.877 32.8361 210.182 33.074L210.829 34.9663ZM212.404 34.7228C213.169 34.7228 213.857 34.8712 214.479 35.1573L215.314 33.3404C214.412 32.9251 213.437 32.7228 212.404 32.7228V34.7228ZM214.494 35.1642C215.149 35.4523 215.687 35.8236 216.123 36.2724L217.557 34.8782C216.926 34.2292 216.169 33.7162 215.299 33.3335L214.494 35.1642ZM216.072 34.9351L215.043 36.1701L216.579 37.4505L217.609 36.2155L216.072 34.9351ZM216.506 36.0913C215.965 35.5684 215.354 35.1567 214.676 34.8633L213.882 36.699C214.332 36.8935 214.742 37.1678 215.116 37.5293L216.506 36.0913ZM214.706 34.8769C214.004 34.5456 213.23 34.3923 212.404 34.3923V36.3923C212.98 36.3923 213.456 36.4983 213.852 36.6854L214.706 34.8769ZM212.404 34.3923C211.409 34.3923 210.498 34.629 209.761 35.1926L210.976 36.7813C211.275 36.5521 211.722 36.3923 212.404 36.3923V34.3923ZM209.764 35.1899C208.988 35.7783 208.613 36.6202 208.613 37.5879H210.613C210.613 37.1834 210.742 36.958 210.972 36.7841L209.764 35.1899ZM208.613 37.5879C208.613 38.0772 208.705 38.5587 208.936 38.9934L210.703 38.0577C210.659 37.974 210.613 37.8303 210.613 37.5879H208.613ZM208.971 39.0555C209.187 39.4012 209.462 39.7036 209.783 39.9649L211.045 38.4127C210.878 38.2775 210.756 38.1378 210.667 37.9955L208.971 39.0555ZM209.814 39.9888C210.103 40.2058 210.415 40.4015 210.749 40.5768L211.68 38.807C211.434 38.6774 211.212 38.5377 211.014 38.3888L209.814 39.9888ZM210.786 40.5956C211.095 40.7419 211.411 40.8797 211.735 41.0092L212.478 39.1522C212.191 39.0377 211.913 38.9163 211.642 38.7882L210.786 40.5956ZM211.711 40.9993L213.838 41.9141L214.628 40.0769L212.501 39.1621L211.711 40.9993ZM213.839 41.9146C214.217 42.0766 214.572 42.2645 214.906 42.4781L215.984 40.7936C215.556 40.5193 215.103 40.2803 214.627 40.0764L213.839 41.9146ZM214.931 42.4934C215.225 42.6698 215.469 42.8757 215.669 43.11L217.188 41.8084C216.84 41.4023 216.428 41.0594 215.96 40.7784L214.931 42.4934ZM215.685 43.1281C215.864 43.3265 216.014 43.5762 216.127 43.8933L218.011 43.2206C217.819 42.6839 217.542 42.2017 217.172 41.7902L215.685 43.1281ZM216.143 43.9342C216.252 44.2016 216.321 44.5488 216.321 44.9977H218.321C218.321 44.3489 218.222 43.7356 217.995 43.1796L216.143 43.9342ZM216.321 44.9977C216.321 45.4509 216.229 45.8614 216.05 46.2415L217.86 47.0931C218.169 46.4364 218.321 45.7338 218.321 44.9977H216.321ZM216.04 46.2636C215.871 46.6459 215.623 46.9886 215.281 47.2949L216.616 48.784C217.159 48.2975 217.581 47.7254 217.87 47.0709L216.04 46.2636ZM215.296 47.282C214.957 47.5743 214.532 47.8221 214.004 48.0151L214.691 49.8934C215.414 49.629 216.056 49.267 216.601 48.7969L215.296 47.282ZM214.024 48.0079C213.522 48.1795 212.925 48.2744 212.221 48.2744V50.2744C213.102 50.2744 213.923 50.1559 214.671 49.9006L214.024 48.0079ZM222.493 48.8857L222.099 49.8048L222.113 49.8104L222.126 49.8156L222.493 48.8857ZM220.801 47.7421L220.072 48.4268L220.083 48.4382L220.094 48.4493L220.801 47.7421ZM219.68 45.9125L218.747 46.2702L219.68 45.9125ZM219.68 41.0184L218.751 40.6503L218.747 40.6607L219.68 41.0184ZM220.801 39.1659L220.072 38.4812L220.067 38.4872L220.061 38.4932L220.801 39.1659ZM222.402 38.0224L222.801 38.9391L222.811 38.9348L222.821 38.9304L222.402 38.0224ZM226.13 37.9767L225.724 38.8905L225.733 38.8945L226.13 37.9767ZM227.525 39.0287L226.744 39.6534L226.75 39.6612L226.757 39.6689L227.525 39.0287ZM228.668 43.4197L227.671 43.343L227.668 43.3813V43.4197H228.668ZM228.623 43.9V44.9H229.425L229.599 44.1169L228.623 43.9ZM221.121 43.9V42.9H220.055L220.123 43.964L221.121 43.9ZM222.219 46.7359L221.488 47.4188L221.496 47.427L221.504 47.435L222.219 46.7359ZM226.29 47.5363L226.616 48.4817L226.625 48.4785L226.634 48.4752L226.29 47.5363ZM227.593 46.896L228.474 46.4228L227.967 45.4788L227.061 46.0497L227.593 46.896ZM228.257 48.1309L228.787 48.9789L229.581 48.4827L229.138 47.6578L228.257 48.1309ZM226.633 48.9314L226.992 49.8647V49.8647L226.633 48.9314ZM221.098 42.5507L220.104 42.4402L219.981 43.5507H221.098V42.5507ZM227.045 42.5507V43.5507H228.045V42.5507H227.045ZM226.313 39.9892L225.53 40.6115L225.539 40.6225L225.548 40.6334L226.313 39.9892ZM223.157 39.326L222.772 38.4029L222.765 38.4059L222.758 38.4089L223.157 39.326ZM222.196 40.0121L222.903 40.7192L222.912 40.7101L222.921 40.7008L222.196 40.0121ZM221.464 41.087L220.557 40.6659L220.551 40.6794L220.545 40.6931L221.464 41.087ZM224.597 48.2744C223.969 48.2744 223.393 48.1659 222.861 47.9557L222.126 49.8156C222.905 50.1238 223.732 50.2744 224.597 50.2744V48.2744ZM222.887 47.9665C222.363 47.7417 221.905 47.4321 221.508 47.035L220.094 48.4493C220.673 49.028 221.343 49.4807 222.099 49.8048L222.887 47.9665ZM221.53 47.0575C221.156 46.659 220.847 46.1637 220.614 45.5549L218.747 46.2702C219.062 47.0945 219.501 47.819 220.072 48.4268L221.53 47.0575ZM220.614 45.5549C220.391 44.9721 220.269 44.2809 220.269 43.4655H218.269C218.269 44.4796 218.421 45.4198 218.747 46.2702L220.614 45.5549ZM220.269 43.4655C220.269 42.65 220.391 41.9588 220.614 41.376L218.747 40.6607C218.421 41.5111 218.269 42.4513 218.269 43.4655H220.269ZM220.61 41.3864C220.862 40.7493 221.176 40.2396 221.541 39.8386L220.061 38.4932C219.511 39.0985 219.078 39.8237 218.751 40.6503L220.61 41.3864ZM221.53 39.8506C221.916 39.4399 222.339 39.1407 222.801 38.9391L222.002 37.1057C221.275 37.4225 220.632 37.8857 220.072 38.4812L221.53 39.8506ZM222.821 38.9304C223.287 38.7151 223.762 38.6107 224.254 38.6107V36.6107C223.466 36.6107 222.706 36.7808 221.983 37.1144L222.821 38.9304ZM224.254 38.6107C224.839 38.6107 225.322 38.7121 225.724 38.8905L226.536 37.0628C225.839 36.7533 225.072 36.6107 224.254 36.6107V38.6107ZM225.733 38.8945C226.155 39.0769 226.485 39.3299 226.744 39.6534L228.306 38.404C227.833 37.8126 227.233 37.3643 226.527 37.0588L225.733 38.8945ZM226.757 39.6689C227.043 40.0129 227.274 40.4409 227.439 40.971L229.349 40.3796C229.117 39.629 228.769 38.9593 228.293 38.3885L226.757 39.6689ZM227.439 40.971C227.602 41.5 227.691 42.1147 227.691 42.8251H229.691C229.691 41.9498 229.582 41.1314 229.349 40.3796L227.439 40.971ZM227.691 42.8251C227.691 42.9976 227.685 43.1703 227.671 43.343L229.665 43.4964C229.683 43.2728 229.691 43.049 229.691 42.8251H227.691ZM227.668 43.4197C227.668 43.5503 227.657 43.6347 227.646 43.6831L229.599 44.1169C229.649 43.8909 229.668 43.6551 229.668 43.4197H227.668ZM228.623 42.9H221.121V44.9H228.623V42.9ZM220.123 43.964C220.211 45.3269 220.639 46.5106 221.488 47.4188L222.949 46.053C222.487 45.5585 222.184 44.8516 222.119 43.836L220.123 43.964ZM221.504 47.435C222.385 48.336 223.523 48.765 224.826 48.765V46.765C223.995 46.765 223.395 46.5079 222.934 46.0368L221.504 47.435ZM224.826 48.765C225.455 48.765 226.055 48.675 226.616 48.4817L225.964 46.5909C225.64 46.7025 225.264 46.765 224.826 46.765V48.765ZM226.634 48.4752C227.157 48.2833 227.655 48.0389 228.126 47.7422L227.061 46.0497C226.708 46.2714 226.337 46.4539 225.946 46.5974L226.634 48.4752ZM226.712 47.3691L227.376 48.6041L229.138 47.6578L228.474 46.4228L226.712 47.3691ZM227.727 47.2829C227.298 47.5506 226.815 47.7899 226.274 47.998L226.992 49.8647C227.64 49.6155 228.239 49.3211 228.787 48.9789L227.727 47.2829ZM226.274 47.998C225.814 48.175 225.261 48.2744 224.597 48.2744V50.2744C225.459 50.2744 226.263 50.1452 226.992 49.8647L226.274 47.998ZM221.098 43.5507H227.045V41.5507H221.098V43.5507ZM228.045 42.5507C228.045 41.2983 227.776 40.1748 227.078 39.3451L225.548 40.6334C225.825 40.9623 226.045 41.5465 226.045 42.5507H228.045ZM227.095 39.367C226.404 38.4974 225.424 38.0973 224.3 38.0973V40.0973C224.914 40.0973 225.276 40.2918 225.53 40.6115L227.095 39.367ZM224.3 38.0973C223.772 38.0973 223.26 38.1997 222.772 38.4029L223.541 40.2491C223.785 40.1474 224.036 40.0973 224.3 40.0973V38.0973ZM222.758 38.4089C222.272 38.62 221.844 38.931 221.471 39.3233L222.921 40.7008C223.128 40.4834 223.339 40.3369 223.555 40.2431L222.758 38.4089ZM221.489 39.305C221.105 39.6889 220.798 40.1482 220.557 40.6659L222.371 41.5081C222.527 41.1719 222.708 40.9147 222.903 40.7192L221.489 39.305ZM220.545 40.6931C220.317 41.2254 220.174 41.8116 220.104 42.4402L222.092 42.6611C222.144 42.192 222.246 41.8023 222.383 41.4809L220.545 40.6931ZM231.354 48.4511L230.685 49.1945L230.694 49.2026L231.354 48.4511ZM232.063 43.3282L232.572 44.189L232.581 44.1836L232.063 43.3282ZM237.254 41.956L237.363 42.9502L238.254 42.853V41.956H237.254ZM237.14 40.9269L236.156 41.1058L236.16 41.1272L236.165 41.1485L237.14 40.9269ZM236.088 39.4175L235.587 40.2829L235.613 40.2982L235.641 40.3119L236.088 39.4175ZM233.16 39.5318L232.764 38.614V38.614L233.16 39.5318ZM231.651 40.3551L230.779 40.8447L231.316 41.801L232.219 41.1784L231.651 40.3551ZM230.919 39.0515L230.376 38.212L229.587 38.7222L230.047 39.5411L230.919 39.0515ZM232.817 38.091L233.195 39.0169L233.203 39.0136L233.211 39.0102L232.817 38.091ZM238.238 38.8686L237.429 39.4568L237.434 39.4638L238.238 38.8686ZM239.152 49V50H240.152V49H239.152ZM237.597 49L236.604 49.1198L236.711 50H237.597V49ZM237.437 47.6735L238.43 47.5537L238.324 46.6735H237.437V47.6735ZM237.369 47.6735V46.6735H237.008L236.731 46.9035L237.369 47.6735ZM235.653 48.817L236.1 49.7115L236.109 49.707L236.118 49.7024L235.653 48.817ZM235.745 47.3991L236.203 48.2877L236.215 48.282L236.226 48.2759L235.745 47.3991ZM237.254 46.2785L237.929 47.0165L238.254 46.7191V46.2785H237.254ZM237.254 43.191H238.254V42.0513L237.124 42.1995L237.254 43.191ZM234.899 43.6255L234.645 42.6582L234.639 42.6597L234.899 43.6255ZM233.366 44.2202L232.867 43.354L232.859 43.3583L232.852 43.3627L233.366 44.2202ZM232.52 45.0206L231.663 44.5061L231.659 44.5128L231.655 44.5196L232.52 45.0206ZM232.84 47.3534L233.425 46.5418L232.84 47.3534ZM233.686 48.2744C232.969 48.2744 232.434 48.0692 232.014 47.6997L230.694 49.2026C231.523 49.9308 232.544 50.2744 233.686 50.2744V48.2744ZM232.023 47.7078C231.67 47.3905 231.439 46.9106 231.439 46.1184H229.439C229.439 47.3387 229.818 48.414 230.685 49.1944L232.023 47.7078ZM231.439 46.1184C231.439 45.2655 231.782 44.6562 232.572 44.1889L231.554 42.4676C230.178 43.281 229.439 44.5318 229.439 46.1184H231.439ZM232.581 44.1836C233.471 43.6443 235.022 43.2052 237.363 42.9502L237.146 40.9619C234.729 41.2253 232.819 41.7009 231.545 42.4729L232.581 44.1836ZM238.254 41.956C238.254 41.5323 238.208 41.1148 238.115 40.7053L236.165 41.1485C236.224 41.4098 236.254 41.6785 236.254 41.956H238.254ZM238.124 40.748C238.042 40.2964 237.883 39.8727 237.636 39.4917L235.957 40.5782C236.046 40.7156 236.116 40.8866 236.156 41.1058L238.124 40.748ZM237.636 39.4917C237.362 39.0672 236.983 38.7468 236.535 38.523L235.641 40.3119C235.803 40.393 235.896 40.4843 235.957 40.5782L237.636 39.4917ZM236.589 38.552C236.101 38.2697 235.539 38.1659 234.967 38.1659V40.1659C235.31 40.1659 235.495 40.2299 235.587 40.2829L236.589 38.552ZM234.967 38.1659C234.196 38.1659 233.458 38.3136 232.764 38.614L233.557 40.4497C233.991 40.2622 234.458 40.1659 234.967 40.1659V38.1659ZM232.764 38.614C232.148 38.8802 231.586 39.1851 231.083 39.5319L232.219 41.1784C232.6 40.9153 233.045 40.6714 233.557 40.4497L232.764 38.614ZM232.523 39.8656L231.791 38.562L230.047 39.5411L230.779 40.8447L232.523 39.8656ZM231.462 39.8911C231.915 39.598 232.489 39.305 233.195 39.0169L232.44 37.1652C231.651 37.4869 230.96 37.8342 230.376 38.212L231.462 39.8911ZM233.211 39.0102C233.821 38.7488 234.509 38.6107 235.287 38.6107V36.6107C234.267 36.6107 233.308 36.7929 232.423 37.1719L233.211 39.0102ZM235.287 38.6107C236.433 38.6107 237.063 38.9536 237.429 39.4568L239.046 38.2804C238.192 37.1064 236.856 36.6107 235.287 36.6107V38.6107ZM237.434 39.4638C237.878 40.0632 238.152 40.9368 238.152 42.1847H240.152C240.152 40.6578 239.817 39.3207 239.041 38.2734L237.434 39.4638ZM238.152 42.1847V49H240.152V42.1847H238.152ZM239.152 48H237.597V50H239.152V48ZM238.59 48.8802L238.43 47.5537L236.444 47.7934L236.604 49.1198L238.59 48.8802ZM237.437 46.6735H237.369V48.6735H237.437V46.6735ZM236.731 46.9035C236.25 47.3016 235.736 47.644 235.188 47.9316L236.118 49.7024C236.79 49.3497 237.42 48.9298 238.007 48.4436L236.731 46.9035ZM235.206 47.9226C234.739 48.1561 234.237 48.2744 233.686 48.2744V50.2744C234.538 50.2744 235.348 50.0879 236.1 49.7115L235.206 47.9226ZM234.235 48.765C234.928 48.765 235.588 48.6051 236.203 48.2877L235.286 46.5105C234.956 46.681 234.61 46.765 234.235 46.765V48.765ZM236.226 48.2759C236.787 47.9679 237.355 47.5412 237.929 47.0165L236.579 45.5404C236.086 45.9915 235.648 46.3119 235.264 46.5223L236.226 48.2759ZM238.254 46.2785V43.191H236.254V46.2785H238.254ZM237.124 42.1995C236.168 42.3249 235.339 42.4765 234.645 42.6582L235.152 44.5929C235.739 44.4392 236.48 44.3011 237.384 44.1825L237.124 42.1995ZM234.639 42.6597C233.962 42.8415 233.362 43.0679 232.867 43.354L233.866 45.0864C234.163 44.9151 234.585 44.745 235.158 44.5914L234.639 42.6597ZM232.852 43.3627C232.364 43.6551 231.949 44.0295 231.663 44.5061L233.378 45.5351C233.458 45.4018 233.606 45.2426 233.881 45.0777L232.852 43.3627ZM231.655 44.5196C231.395 44.9689 231.269 45.4633 231.269 45.9812H233.269C233.269 45.7977 233.31 45.6517 233.386 45.5217L231.655 44.5196ZM231.269 45.9812C231.269 46.8165 231.526 47.6391 232.256 48.1649L233.425 46.5418C233.393 46.5188 233.269 46.4265 233.269 45.9812H231.269ZM232.256 48.1649C232.835 48.5816 233.513 48.765 234.235 48.765V46.765C233.86 46.765 233.608 46.674 233.425 46.5418L232.256 48.1649ZM242.649 49H241.649V50H242.649V49ZM242.649 37.8852V36.8852H241.649V37.8852H242.649ZM244.205 37.8852L245.201 37.8059L245.128 36.8852H244.205V37.8852ZM244.365 39.8977L243.368 39.977L243.441 40.8977H244.365V39.8977ZM244.433 39.8977V40.8977H245.028L245.312 40.3753L244.433 39.8977ZM245.805 38.2282L245.205 37.4282L245.195 37.4364L245.805 38.2282ZM248.779 37.8394L249.755 38.0564L249.934 37.2512L249.177 36.9224L248.779 37.8394ZM248.413 39.4861L248.096 40.4348L249.148 40.7854L249.389 39.703L248.413 39.4861ZM247.909 39.3489L247.713 40.3294L247.909 39.3489ZM245.851 39.8749L245.259 39.0692L245.253 39.0735L245.247 39.0778L245.851 39.8749ZM244.525 41.8646L243.597 41.4906L243.525 41.6705V41.8646H244.525ZM244.525 49V50H245.525V49H244.525ZM243.649 49V37.8852H241.649V49H243.649ZM242.649 38.8852H244.205V36.8852H242.649V38.8852ZM243.208 37.9645L243.368 39.977L245.361 39.8184L245.201 37.8059L243.208 37.9645ZM244.365 40.8977H244.433V38.8977H244.365V40.8977ZM245.312 40.3753C245.639 39.7739 246.011 39.3325 246.416 39.02L245.195 37.4364C244.532 37.9473 243.99 38.6189 243.555 39.4202L245.312 40.3753ZM246.405 39.0282C246.794 38.7365 247.181 38.6107 247.589 38.6107V36.6107C246.717 36.6107 245.914 36.8966 245.205 37.4282L246.405 39.0282ZM247.589 38.6107C247.916 38.6107 248.173 38.6666 248.38 38.7565L249.177 36.9224C248.683 36.7073 248.147 36.6107 247.589 36.6107V38.6107ZM247.802 37.6225L247.436 39.2691L249.389 39.703L249.755 38.0564L247.802 37.6225ZM248.729 38.5374C248.515 38.4663 248.307 38.4086 248.106 38.3683L247.713 40.3294C247.817 40.3501 247.944 40.3839 248.096 40.4348L248.729 38.5374ZM248.106 38.3683C247.866 38.3204 247.605 38.3031 247.338 38.3031V40.3031C247.528 40.3031 247.648 40.3163 247.713 40.3294L248.106 38.3683ZM247.338 38.3031C246.587 38.3031 245.888 38.6067 245.259 39.0692L246.444 40.6805C246.851 40.3807 247.143 40.3031 247.338 40.3031V38.3031ZM245.247 39.0778C244.537 39.6159 244.009 40.4705 243.597 41.4906L245.452 42.2385C245.803 41.368 246.159 40.8961 246.455 40.672L245.247 39.0778ZM243.525 41.8646V49H245.525V41.8646H243.525ZM244.525 48H242.649V50H244.525V48ZM252.687 48.8857L253.063 47.9587L252.687 48.8857ZM251.018 47.765L250.278 48.4377L250.289 48.4494L250.3 48.4608L251.018 47.765ZM249.92 45.9354L248.977 46.2693L248.982 46.2812L248.986 46.2931L249.92 45.9354ZM249.966 40.9955L250.893 41.3703L250.896 41.3635L249.966 40.9955ZM252.825 37.9995L252.457 37.0695L252.449 37.0726L252.825 37.9995ZM256.758 37.9995L257.205 37.1051L256.758 37.9995ZM258.13 38.9143L258.92 39.5283L259.496 38.7873L258.793 38.1653L258.13 38.9143ZM257.17 40.1493L256.499 40.8908L257.298 41.6136L257.959 40.7632L257.17 40.1493ZM256.141 39.4403L255.678 40.3269L255.686 40.3309L255.693 40.3348L256.141 39.4403ZM253.556 39.4861L253.977 40.3931L253.991 40.387L254.004 40.3805L253.556 39.4861ZM251.727 41.7273L250.781 41.403L250.778 41.4112L250.775 41.4195L251.727 41.7273ZM251.727 45.2036L250.775 45.5114L251.727 45.2036ZM252.413 46.5529L251.617 47.158L251.63 47.1759L251.645 47.1931L252.413 46.5529ZM253.511 47.422L253.063 48.3164L253.076 48.3229L253.09 48.329L253.511 47.422ZM256.324 47.3991L256.771 48.2936L256.783 48.2873L256.324 47.3991ZM257.513 46.5986L258.35 46.051L257.722 45.0918L256.857 45.844L257.513 46.5986ZM258.336 47.8565L258.996 48.6077L259.648 48.0349L259.173 47.3088L258.336 47.8565ZM256.667 48.9085L257.038 49.837L257.048 49.833L257.058 49.8289L256.667 48.9085ZM254.746 48.2744C254.135 48.2744 253.577 48.1668 253.063 47.9587L252.312 49.8126C253.079 50.1229 253.893 50.2744 254.746 50.2744V48.2744ZM253.063 47.9587C252.549 47.7509 252.11 47.4553 251.736 47.0692L250.3 48.4608C250.871 49.0506 251.545 49.502 252.312 49.8126L253.063 47.9587ZM251.758 47.0923C251.394 46.6923 251.09 46.193 250.854 45.5778L248.986 46.2931C249.299 47.111 249.727 47.8315 250.278 48.4377L251.758 47.0923ZM250.863 45.6016C250.648 44.9941 250.531 44.2863 250.531 43.4655H248.531C248.531 44.4742 248.674 45.413 248.977 46.2693L250.863 45.6016ZM250.531 43.4655C250.531 42.6384 250.66 41.9462 250.893 41.3703L249.039 40.6207C248.692 41.4779 248.531 42.4325 248.531 43.4655H250.531ZM250.896 41.3635C251.143 40.7389 251.464 40.237 251.85 39.8392L250.414 38.4469C249.824 39.0553 249.368 39.7884 249.036 40.6275L250.896 41.3635ZM251.85 39.8392C252.242 39.4345 252.69 39.1327 253.2 38.9265L252.449 37.0726C251.678 37.3848 250.998 37.8453 250.414 38.4469L251.85 39.8392ZM253.192 38.9295C253.729 38.7173 254.29 38.6107 254.883 38.6107V36.6107C254.042 36.6107 253.231 36.7633 252.457 37.0696L253.192 38.9295ZM254.883 38.6107C255.499 38.6107 255.963 38.72 256.311 38.894L257.205 37.1051C256.517 36.7607 255.73 36.6107 254.883 36.6107V38.6107ZM256.311 38.894C256.759 39.1179 257.142 39.3755 257.468 39.6633L258.793 38.1653C258.326 37.7518 257.794 37.3995 257.205 37.1051L256.311 38.894ZM257.341 38.3004L256.38 39.5354L257.959 40.7632L258.92 39.5283L257.341 38.3004ZM257.841 39.4078C257.457 39.0606 257.039 38.7716 256.588 38.5459L255.693 40.3348C255.974 40.475 256.242 40.6587 256.499 40.8908L257.841 39.4078ZM256.603 38.5538C256.094 38.2879 255.535 38.1659 254.951 38.1659V40.1659C255.252 40.1659 255.486 40.2269 255.678 40.3269L256.603 38.5538ZM254.951 38.1659C254.302 38.1659 253.682 38.305 253.109 38.5917L254.004 40.3805C254.284 40.2402 254.595 40.1659 254.951 40.1659V38.1659ZM253.135 38.5791C252.563 38.8448 252.075 39.2333 251.678 39.7304L253.239 40.9798C253.452 40.7147 253.696 40.5238 253.977 40.3931L253.135 38.5791ZM251.678 39.7304C251.291 40.2143 250.995 40.7772 250.781 41.403L252.673 42.0517C252.824 41.6102 253.017 41.2583 253.239 40.9798L251.678 39.7304ZM250.775 41.4195C250.57 42.053 250.475 42.7384 250.475 43.4655H252.475C252.475 42.9118 252.548 42.4384 252.678 42.0352L250.775 41.4195ZM250.475 43.4655C250.475 44.1925 250.57 44.8779 250.775 45.5114L252.678 44.8958C252.548 44.4925 252.475 44.0192 252.475 43.4655H250.475ZM250.775 45.5114C250.973 46.1223 251.25 46.6757 251.617 47.158L253.209 45.9478C252.996 45.6677 252.816 45.3216 252.678 44.8958L250.775 45.5114ZM251.645 47.1931C252.038 47.6652 252.513 48.0414 253.063 48.3164L253.958 46.5275C253.654 46.3757 253.398 46.1724 253.181 45.9127L251.645 47.1931ZM253.09 48.329C253.657 48.5926 254.267 48.7193 254.906 48.7193V46.7193C254.538 46.7193 254.218 46.6477 253.932 46.515L253.09 48.329ZM254.906 48.7193C255.566 48.7193 256.193 48.5823 256.771 48.2935L255.876 46.5047C255.6 46.6429 255.282 46.7193 254.906 46.7193V48.7193ZM256.783 48.2873C257.291 48.0246 257.754 47.714 258.169 47.3533L256.857 45.844C256.57 46.0932 256.241 46.3162 255.864 46.5109L256.783 48.2873ZM256.676 47.1463L257.5 48.4042L259.173 47.3088L258.35 46.051L256.676 47.1463ZM257.676 47.1053C257.252 47.4779 256.786 47.7711 256.276 47.9882L257.058 49.8289C257.767 49.5275 258.414 49.1194 258.996 48.6077L257.676 47.1053ZM256.295 47.98C255.806 48.1757 255.292 48.2744 254.746 48.2744V50.2744C255.541 50.2744 256.308 50.1292 257.038 49.837L256.295 47.98ZM260.785 49H259.785V50H260.785V49ZM260.785 32.7166V31.7166H259.785V32.7166H260.785ZM262.66 32.7166H263.66V31.7166H262.66V32.7166ZM262.66 37.1533L263.659 37.1833L263.66 37.1683V37.1533H262.66ZM262.591 39.4403L261.592 39.4104L261.519 41.8255L263.277 40.1679L262.591 39.4403ZM264.261 38.1596L264.779 39.0151L264.787 39.0102L264.795 39.0051L264.261 38.1596ZM268.858 38.7085L268.05 39.2977L268.058 39.3085L268.858 38.7085ZM269.681 49V50H270.681V49H269.681ZM267.806 49H266.806V50H267.806V49ZM267.303 39.9435L266.487 40.5222L266.491 40.5286L266.496 40.5348L267.303 39.9435ZM262.66 40.9498L261.953 40.2427L261.66 40.5355V40.9498H262.66ZM262.66 49V50H263.66V49H262.66ZM261.785 49V32.7166H259.785V49H261.785ZM260.785 33.7166H262.66V31.7166H260.785V33.7166ZM261.66 32.7166V37.1533H263.66V32.7166H261.66ZM261.66 37.1234L261.592 39.4104L263.591 39.4703L263.659 37.1833L261.66 37.1234ZM263.277 40.1679C263.764 39.7093 264.264 39.3263 264.779 39.0151L263.743 37.3041C263.098 37.6942 262.486 38.1651 261.905 38.7128L263.277 40.1679ZM264.795 39.0051C265.194 38.7532 265.682 38.6107 266.296 38.6107V36.6107C265.356 36.6107 264.487 36.8342 263.727 37.3141L264.795 39.0051ZM266.296 38.6107C267.255 38.6107 267.758 38.898 268.05 39.2977L269.666 38.1193C268.89 37.0553 267.686 36.6107 266.296 36.6107V38.6107ZM268.058 39.3085C268.422 39.7938 268.681 40.6247 268.681 41.956H270.681C270.681 40.421 270.391 39.0869 269.658 38.1085L268.058 39.3085ZM268.681 41.956V49H270.681V41.956H268.681ZM269.681 48H267.806V50H269.681V48ZM268.806 49V42.2076H266.806V49H268.806ZM268.806 42.2076C268.806 41.1002 268.639 40.0749 268.109 39.3521L266.496 40.5348C266.637 40.7268 266.806 41.211 266.806 42.2076H268.806ZM268.118 39.3647C267.546 38.5588 266.662 38.2345 265.702 38.2345V40.2345C266.204 40.2345 266.388 40.3828 266.487 40.5222L268.118 39.3647ZM265.702 38.2345C264.947 38.2345 264.242 38.426 263.621 38.8326L264.717 40.5055C264.981 40.3327 265.297 40.2345 265.702 40.2345V38.2345ZM263.621 38.8326C263.101 39.1736 262.544 39.6519 261.953 40.2427L263.367 41.6569C263.904 41.1194 264.354 40.7438 264.717 40.5055L263.621 38.8326ZM261.66 40.9498V49H263.66V40.9498H261.66ZM262.66 48H260.785V50H262.66V48ZM278.123 49H277.123V50H278.123V49ZM278.123 39.4175H279.123V38.4175H278.123V39.4175ZM276.614 39.4175H275.614V40.4175H276.614V39.4175ZM276.614 37.9995L276.538 37.0024L275.614 37.0724V37.9995H276.614ZM278.123 37.8852L278.199 38.8823L279.123 38.8123V37.8852H278.123ZM278.901 33.4255L278.125 32.7943L278.121 32.7997L278.116 32.8053L278.901 33.4255ZM282.354 32.5565L282.112 33.5266L282.139 33.5335L282.167 33.5388L282.354 32.5565ZM283.223 32.808L284.185 33.0828L284.43 32.2236L283.604 31.8834L283.223 32.808ZM282.812 34.2488L282.405 35.1627L283.457 35.63L283.773 34.5236L282.812 34.2488ZM279.999 37.8852H278.999V38.8852H279.999V37.8852ZM282.354 37.8852H283.354V36.8852H282.354V37.8852ZM282.354 39.4175V40.4175H283.354V39.4175H282.354ZM279.999 39.4175V38.4175H278.999V39.4175H279.999ZM279.999 49V50H280.999V49H279.999ZM279.123 49V39.4175H277.123V49H279.123ZM278.123 38.4175H276.614V40.4175H278.123V38.4175ZM277.614 39.4175V37.9995H275.614V39.4175H277.614ZM276.689 38.9967L278.199 38.8823L278.048 36.888L276.538 37.0024L276.689 38.9967ZM279.123 37.8852V36.1242H277.123V37.8852H279.123ZM279.123 36.1242C279.123 35.1237 279.35 34.4697 279.685 34.0458L278.116 32.8053C277.415 33.6926 277.123 34.8377 277.123 36.1242H279.123ZM279.676 34.0568C279.964 33.7037 280.456 33.4421 281.371 33.4421V31.4421C280.059 31.4421 278.905 31.8362 278.125 32.7943L279.676 34.0568ZM281.371 33.4421C281.649 33.4421 281.895 33.4723 282.112 33.5266L282.597 31.5863C282.204 31.4881 281.794 31.4421 281.371 31.4421V33.4421ZM282.167 33.5388C282.431 33.5891 282.655 33.6555 282.842 33.7327L283.604 31.8834C283.273 31.7472 282.917 31.6458 282.541 31.5741L282.167 33.5388ZM282.262 32.5333L281.85 33.9741L283.773 34.5236L284.185 33.0828L282.262 32.5333ZM283.218 33.335C282.685 33.0985 282.128 32.9744 281.554 32.9744V34.9744C281.833 34.9744 282.114 35.0333 282.405 35.1627L283.218 33.335ZM281.554 32.9744C280.778 32.9744 280.058 33.2603 279.577 33.9257C279.139 34.5311 278.999 35.3169 278.999 36.1242H280.999C280.999 35.4983 281.117 35.2092 281.198 35.098C281.235 35.0468 281.293 34.9744 281.554 34.9744V32.9744ZM278.999 36.1242V37.8852H280.999V36.1242H278.999ZM279.999 38.8852H282.354V36.8852H279.999V38.8852ZM281.354 37.8852V39.4175H283.354V37.8852H281.354ZM282.354 38.4175H279.999V40.4175H282.354V38.4175ZM278.999 39.4175V49H280.999V39.4175H278.999ZM279.999 48H278.123V50H279.999V48ZM286.613 48.8857L286.222 49.806L286.23 49.8094L286.613 48.8857ZM284.989 47.765L284.261 48.4497L284.266 48.4553L284.271 48.4608L284.989 47.765ZM283.846 45.9354L282.91 46.2865L282.914 46.2984L282.919 46.3102L283.846 45.9354ZM283.846 40.9955L282.916 40.6274L282.912 40.6379L283.846 40.9955ZM286.613 37.9995L286.23 37.0758L286.222 37.0792L286.613 37.9995ZM290.524 37.9995L290.133 38.9199L290.141 38.9233L290.524 37.9995ZM292.171 39.143L292.899 38.4584V38.4584L292.171 39.143ZM293.291 40.9955L292.355 41.3466L292.359 41.3585L292.364 41.3703L293.291 40.9955ZM293.291 45.9354L292.361 45.5673L292.357 45.5778L293.291 45.9354ZM292.171 47.765L292.889 48.4608L292.894 48.4553L292.899 48.4497L292.171 47.765ZM290.524 48.8857L290.141 47.9619L290.133 47.9653L290.524 48.8857ZM289.884 47.422L290.331 48.3164L290.344 48.3096L290.358 48.3024L289.884 47.422ZM290.89 46.5529L290.094 45.9478L290.09 45.9529L290.89 46.5529ZM291.553 45.2036L290.594 44.9214L291.553 45.2036ZM291.553 41.7273L290.592 42.0021L290.594 42.0095L291.553 41.7273ZM290.89 40.3551L290.078 40.9394L290.086 40.9499L290.094 40.9602L290.89 40.3551ZM289.884 39.4861L289.409 40.3666L289.423 40.3737L289.436 40.3805L289.884 39.4861ZM287.276 39.4861L287.724 40.3805L287.737 40.3737L287.751 40.3666L287.276 39.4861ZM286.247 40.3551L285.451 39.7501L285.443 39.7603L285.436 39.7708L286.247 40.3551ZM285.607 41.7273L286.566 42.0095L286.568 42.0021L285.607 41.7273ZM285.607 45.2036L284.648 45.4857L285.607 45.2036ZM286.247 46.5529L285.436 47.1372L285.449 47.1557L285.463 47.1736L286.247 46.5529ZM287.276 47.422L286.802 48.3024L286.816 48.3096L286.829 48.3164L287.276 47.422ZM288.58 48.2744C288.023 48.2744 287.498 48.17 286.996 47.9619L286.23 49.8094C286.978 50.1196 287.764 50.2744 288.58 50.2744V48.2744ZM287.004 47.9653C286.521 47.7597 286.09 47.4636 285.708 47.0692L284.271 48.4608C284.834 49.0422 285.486 49.4932 286.222 49.806L287.004 47.9653ZM285.718 47.0803C285.34 46.6775 285.022 46.1762 284.773 45.5606L282.919 46.3102C283.249 47.1278 283.694 47.8463 284.261 48.4497L285.718 47.0803ZM284.782 45.5843C284.556 44.9821 284.434 44.2804 284.434 43.4655H282.434C282.434 44.4801 282.587 45.4251 282.91 46.2865L284.782 45.5843ZM284.434 43.4655C284.434 42.6325 284.557 41.9342 284.78 41.3531L282.912 40.6379C282.586 41.49 282.434 42.4383 282.434 43.4655H284.434ZM284.776 41.3635C285.025 40.7327 285.343 40.227 285.718 39.8277L284.261 38.4584C283.69 39.0654 283.246 39.7946 282.916 40.6275L284.776 41.3635ZM285.718 39.8277C286.1 39.4214 286.527 39.1225 287.004 38.9199L286.222 37.0792C285.479 37.3949 284.824 37.8584 284.261 38.4584L285.718 39.8277ZM286.996 38.9233C287.498 38.7151 288.023 38.6107 288.58 38.6107V36.6107C287.764 36.6107 286.978 36.7655 286.23 37.0758L286.996 38.9233ZM288.58 38.6107C289.137 38.6107 289.651 38.7151 290.133 38.9199L290.915 37.0792C290.177 36.7656 289.396 36.6107 288.58 36.6107V38.6107ZM290.141 38.9233C290.632 39.1271 291.064 39.4257 291.442 39.8277L292.899 38.4584C292.332 37.8541 291.666 37.3904 290.907 37.0758L290.141 38.9233ZM291.442 39.8277C291.813 40.2225 292.121 40.7223 292.355 41.3466L294.228 40.6444C293.913 39.805 293.474 39.0698 292.899 38.4584L291.442 39.8277ZM292.364 41.3703C292.597 41.9462 292.726 42.6384 292.726 43.4655H294.726C294.726 42.4325 294.565 41.4779 294.218 40.6207L292.364 41.3703ZM292.726 43.4655C292.726 44.2744 292.598 44.9701 292.361 45.5674L294.221 46.3035C294.564 45.4371 294.726 44.4861 294.726 43.4655H292.726ZM292.357 45.5778C292.124 46.1866 291.816 46.6819 291.442 47.0803L292.899 48.4497C293.47 47.8419 293.909 47.1174 294.225 46.2931L292.357 45.5778ZM291.452 47.0692C291.074 47.4594 290.639 47.7552 290.141 47.9619L290.907 49.8094C291.659 49.4977 292.322 49.0464 292.889 48.4608L291.452 47.0692ZM290.133 47.9653C289.651 48.1701 289.137 48.2744 288.58 48.2744V50.2744C289.396 50.2744 290.177 50.1196 290.915 49.806L290.133 47.9653ZM288.58 48.7193C289.197 48.7193 289.786 48.5886 290.331 48.3164L289.436 46.5275C289.188 46.6517 288.908 46.7193 288.58 46.7193V48.7193ZM290.358 48.3024C290.884 48.0191 291.33 47.6329 291.69 47.1529L290.09 45.9529C289.901 46.2047 289.676 46.3979 289.409 46.5415L290.358 48.3024ZM291.686 47.158C292.058 46.6684 292.33 46.1059 292.512 45.4857L290.594 44.9214C290.471 45.338 290.301 45.6751 290.094 45.9478L291.686 47.158ZM292.512 45.4857C292.696 44.8606 292.782 44.1842 292.782 43.4655H290.782C290.782 44.0274 290.715 44.5098 290.594 44.9214L292.512 45.4857ZM292.782 43.4655C292.782 42.7467 292.696 42.0703 292.512 41.4452L290.594 42.0095C290.715 42.4212 290.782 42.9035 290.782 43.4655H292.782ZM292.515 41.4526C292.333 40.8183 292.062 40.2445 291.686 39.7501L290.094 40.9602C290.297 41.2281 290.468 41.5691 290.592 42.0021L292.515 41.4526ZM291.701 39.7708C291.338 39.2664 290.881 38.8666 290.331 38.5917L289.436 40.3805C289.679 40.502 289.893 40.6815 290.078 40.9394L291.701 39.7708ZM290.358 38.6056C289.808 38.3098 289.21 38.1659 288.58 38.1659V40.1659C288.896 40.1659 289.166 40.2355 289.409 40.3666L290.358 38.6056ZM288.58 38.1659C287.95 38.1659 287.352 38.3098 286.802 38.6056L287.751 40.3666C287.994 40.2355 288.264 40.1659 288.58 40.1659V38.1659ZM286.829 38.5917C286.285 38.8637 285.826 39.257 285.451 39.7501L287.043 40.9602C287.248 40.691 287.475 40.5049 287.724 40.3805L286.829 38.5917ZM285.436 39.7708C285.083 40.2611 284.824 40.8276 284.645 41.4526L286.568 42.0021C286.695 41.5598 286.863 41.2116 287.059 40.9394L285.436 39.7708ZM284.648 41.4452C284.464 42.0703 284.378 42.7467 284.378 43.4655H286.378C286.378 42.9035 286.445 42.4212 286.566 42.0095L284.648 41.4452ZM284.378 43.4655C284.378 44.1842 284.464 44.8606 284.648 45.4857L286.566 44.9214C286.445 44.5098 286.378 44.0274 286.378 43.4655H284.378ZM284.648 45.4857C284.827 46.0964 285.086 46.6518 285.436 47.1372L287.059 45.9686C286.859 45.6917 286.692 45.3475 286.566 44.9214L284.648 45.4857ZM285.463 47.1736C285.834 47.6423 286.282 48.022 286.802 48.3024L287.751 46.5415C287.478 46.395 287.24 46.1953 287.031 45.9322L285.463 47.1736ZM286.829 48.3164C287.374 48.5886 287.963 48.7193 288.58 48.7193V46.7193C288.252 46.7193 287.972 46.6517 287.724 46.5275L286.829 48.3164ZM296.653 49H295.653V50H296.653V49ZM296.653 37.8852V36.8852H295.653V37.8852H296.653ZM298.208 37.8852L299.205 37.8059L299.132 36.8852H298.208V37.8852ZM298.368 39.8977L297.371 39.977L297.445 40.8977H298.368V39.8977ZM298.437 39.8977V40.8977H299.031L299.315 40.3753L298.437 39.8977ZM299.809 38.2282L299.209 37.4282L299.198 37.4364L299.809 38.2282ZM302.782 37.8394L303.758 38.0564L303.937 37.2512L303.181 36.9224L302.782 37.8394ZM302.416 39.4861L302.1 40.4348L303.152 40.7854L303.392 39.703L302.416 39.4861ZM301.913 39.3489L301.717 40.3294L301.913 39.3489ZM299.855 39.8749L299.262 39.0692L299.257 39.0735L299.251 39.0778L299.855 39.8749ZM298.528 41.8646L297.601 41.4906L297.528 41.6705V41.8646H298.528ZM298.528 49V50H299.528V49H298.528ZM297.653 49V37.8852H295.653V49H297.653ZM296.653 38.8852H298.208V36.8852H296.653V38.8852ZM297.211 37.9645L297.371 39.977L299.365 39.8184L299.205 37.8059L297.211 37.9645ZM298.368 40.8977H298.437V38.8977H298.368V40.8977ZM299.315 40.3753C299.642 39.7739 300.015 39.3325 300.42 39.02L299.198 37.4364C298.536 37.9473 297.994 38.6189 297.558 39.4202L299.315 40.3753ZM300.409 39.0282C300.798 38.7365 301.185 38.6107 301.593 38.6107V36.6107C300.72 36.6107 299.918 36.8966 299.209 37.4282L300.409 39.0282ZM301.593 38.6107C301.919 38.6107 302.177 38.6666 302.383 38.7565L303.181 36.9224C302.686 36.7073 302.151 36.6107 301.593 36.6107V38.6107ZM301.806 37.6225L301.44 39.2691L303.392 39.703L303.758 38.0564L301.806 37.6225ZM302.732 38.5374C302.519 38.4663 302.311 38.4086 302.109 38.3683L301.717 40.3294C301.82 40.3501 301.947 40.3839 302.1 40.4348L302.732 38.5374ZM302.109 38.3683C301.87 38.3204 301.608 38.3031 301.341 38.3031V40.3031C301.532 40.3031 301.651 40.3163 301.717 40.3294L302.109 38.3683ZM301.341 38.3031C300.591 38.3031 299.891 38.6067 299.262 39.0692L300.447 40.6805C300.855 40.3807 301.147 40.3031 301.341 40.3031V38.3031ZM299.251 39.0778C298.541 39.6159 298.012 40.4705 297.601 41.4906L299.456 42.2385C299.807 41.368 300.163 40.8961 300.459 40.672L299.251 39.0778ZM297.528 41.8646V49H299.528V41.8646H297.528ZM298.528 48H296.653V50H298.528V48ZM309.8 48.8399L310.175 47.9128L309.8 48.8399ZM307.925 47.7421L307.123 47.1445L306.555 47.9061L307.287 48.5122L307.925 47.7421ZM308.863 46.4843L309.493 45.7082L308.684 45.0507L308.061 45.8866L308.863 46.4843ZM310.349 47.4448L309.913 48.3447L309.923 48.3497L310.349 47.4448ZM313.78 47.3076L313.104 46.5705L313.78 47.3076ZM314.1 45.3179L313.286 45.8992L314.1 45.3179ZM313.505 44.7691L312.914 45.5755L312.944 45.5974L312.975 45.617L313.505 44.7691ZM312.705 44.3345L313.076 43.406L312.705 44.3345ZM311.79 43.9686L312.161 43.0401L312.139 43.0313L312.117 43.0236L311.79 43.9686ZM310.601 43.5112L310.182 44.4192L310.196 44.4259L310.211 44.4322L310.601 43.5112ZM309.526 42.8708L308.878 43.6328L308.899 43.6501L308.92 43.6663L309.526 42.8708ZM308.771 41.9789L307.91 42.4876L308.771 41.9789ZM308.725 39.5318L307.817 39.1128L307.814 39.1209L307.81 39.1291L308.725 39.5318ZM309.48 38.5255L310.131 39.2848L310.134 39.2824L309.48 38.5255ZM310.692 37.8623L310.999 38.814L311.013 38.8096L311.027 38.8047L310.692 37.8623ZM314.214 37.9767L313.826 38.8983L313.835 38.9018L314.214 37.9767ZM315.747 38.8686L316.547 39.4686L317.121 38.7032L316.381 38.0959L315.747 38.8686ZM314.855 40.0578L314.25 40.854L315.051 41.4629L315.655 40.6578L314.855 40.0578ZM310.761 39.5547L310.07 38.8313L310.062 38.8394L310.054 38.8476L310.761 39.5547ZM310.486 41.3614L309.664 41.9306L309.675 41.9462L309.686 41.9614L310.486 41.3614ZM311.035 41.8646L310.481 42.6966L310.5 42.7098L310.521 42.7221L311.035 41.8646ZM311.813 42.2533L311.425 43.175L311.453 43.187L311.483 43.1972L311.813 42.2533ZM312.751 42.5964L313.11 41.663L313.107 41.6619L312.751 42.5964ZM313.94 43.0767L313.55 43.9977L313.562 44.0028L313.94 43.0767ZM315.038 43.717L314.408 44.4943L314.42 44.5035L314.432 44.5125L315.038 43.717ZM315.815 44.6318L314.936 45.1081L314.943 45.122L314.951 45.1357L315.815 44.6318ZM315.861 47.239L314.953 46.82L314.946 46.8346L314.94 46.8494L315.861 47.239ZM315.083 48.291L314.427 47.5364L314.419 47.5437L314.411 47.5511L315.083 48.291ZM313.803 49L313.495 48.0486L313.478 48.0541L313.461 48.0602L313.803 49ZM312.064 48.2744C311.397 48.2744 310.77 48.1531 310.175 47.9128L309.426 49.767C310.264 50.1061 311.147 50.2744 312.064 50.2744V48.2744ZM310.175 47.9128C309.543 47.6572 309.009 47.3416 308.563 46.9721L307.287 48.5122C307.908 49.027 308.625 49.4432 309.426 49.767L310.175 47.9128ZM308.727 48.3398L309.664 47.082L308.061 45.8866L307.123 47.1445L308.727 48.3398ZM308.232 47.2604C308.772 47.6995 309.333 48.0632 309.913 48.3447L310.785 46.545C310.36 46.3385 309.929 46.0619 309.493 45.7082L308.232 47.2604ZM309.923 48.3497C310.596 48.6661 311.34 48.8108 312.133 48.8108V46.8108C311.584 46.8108 311.139 46.7115 310.775 46.54L309.923 48.3497ZM312.133 48.8108C312.999 48.8108 313.834 48.6143 314.455 48.0448L313.104 46.5705C312.993 46.6718 312.731 46.8108 312.133 46.8108V48.8108ZM314.455 48.0448C315.024 47.5237 315.329 46.8464 315.329 46.0726H313.329C313.329 46.2747 313.267 46.4207 313.104 46.5705L314.455 48.0448ZM315.329 46.0726C315.329 45.5973 315.2 45.1374 314.914 44.7367L313.286 45.8992C313.305 45.9254 313.329 45.9686 313.329 46.0726H315.329ZM314.914 44.7367C314.678 44.4067 314.38 44.1362 314.035 43.9211L312.975 45.617C313.119 45.7068 313.217 45.8023 313.286 45.8992L314.914 44.7367ZM314.097 43.9626C313.79 43.738 313.447 43.5545 313.076 43.406L312.333 45.263C312.572 45.3585 312.763 45.4646 312.914 45.5755L314.097 43.9626ZM313.076 43.406C312.771 43.2841 312.466 43.1621 312.161 43.0401L311.419 44.8971C311.724 45.019 312.028 45.141 312.333 45.263L313.076 43.406ZM312.117 43.0236C311.742 42.8939 311.367 42.7495 310.99 42.5902L310.211 44.4322C310.628 44.6084 311.045 44.7689 311.463 44.9136L312.117 43.0236ZM311.02 42.6032C310.684 42.4483 310.389 42.2716 310.132 42.0754L308.92 43.6663C309.303 43.958 309.725 44.2082 310.182 44.4192L311.02 42.6032ZM310.174 42.1089C309.951 41.9197 309.772 41.7073 309.632 41.4702L307.91 42.4876C308.167 42.9213 308.491 43.3036 308.878 43.6328L310.174 42.1089ZM309.632 41.4702C309.543 41.3186 309.474 41.0986 309.474 40.7668H307.474C307.474 41.3803 307.603 41.9683 307.91 42.4876L309.632 41.4702ZM309.474 40.7668C309.474 40.4546 309.532 40.1811 309.641 39.9346L307.81 39.1291C307.583 39.6449 307.474 40.1947 307.474 40.7668H309.474ZM309.633 39.9509C309.758 39.6803 309.924 39.4623 310.131 39.2848L308.829 37.7663C308.396 38.1376 308.059 38.5905 307.817 39.1128L309.633 39.9509ZM310.134 39.2824C310.356 39.0901 310.639 38.9303 310.999 38.814L310.385 36.9106C309.801 37.0992 309.275 37.3816 308.827 37.7687L310.134 39.2824ZM311.027 38.8047C311.374 38.6815 311.792 38.6107 312.293 38.6107V36.6107C311.605 36.6107 310.956 36.7077 310.358 36.9199L311.027 38.8047ZM312.293 38.6107C312.877 38.6107 313.383 38.7117 313.826 38.8983L314.602 37.055C313.887 36.7537 313.112 36.6107 312.293 36.6107V38.6107ZM313.835 38.9018C314.352 39.114 314.773 39.3632 315.112 39.6413L316.381 38.0959C315.866 37.6726 315.266 37.3272 314.594 37.0515L313.835 38.9018ZM314.947 38.2686L314.055 39.4578L315.655 40.6578L316.547 39.4686L314.947 38.2686ZM315.46 39.2617C315.021 38.9281 314.558 38.6513 314.071 38.435L313.259 40.2627C313.596 40.4123 313.926 40.6082 314.25 40.854L315.46 39.2617ZM314.071 38.435C313.522 38.1907 312.932 38.0744 312.316 38.0744V40.0744C312.676 40.0744 312.986 40.1411 313.259 40.2627L314.071 38.435ZM312.316 38.0744C311.486 38.0744 310.668 38.261 310.07 38.8313L311.451 40.278C311.525 40.208 311.743 40.0744 312.316 40.0744V38.0744ZM310.054 38.8476C309.559 39.3427 309.281 39.9659 309.281 40.6753H311.281C311.281 40.531 311.323 40.4071 311.468 40.2618L310.054 38.8476ZM309.281 40.6753C309.281 41.1218 309.402 41.5524 309.664 41.9306L311.309 40.7922C311.296 40.774 311.281 40.7472 311.281 40.6753H309.281ZM309.686 41.9614C309.904 42.2513 310.176 42.4936 310.481 42.6966L311.59 41.0325C311.437 40.9306 311.343 40.8375 311.286 40.7614L309.686 41.9614ZM310.521 42.7221C310.796 42.8875 311.099 43.0378 311.425 43.175L312.201 41.3317C311.947 41.225 311.732 41.1161 311.55 41.0071L310.521 42.7221ZM311.483 43.1972C311.778 43.3008 312.082 43.412 312.395 43.5309L313.107 41.6619C312.778 41.5369 312.457 41.4194 312.143 41.3095L311.483 43.1972ZM312.392 43.5297C312.778 43.6782 313.164 43.8342 313.55 43.9976L314.329 42.1557C313.923 41.9838 313.516 41.8195 313.11 41.6631L312.392 43.5297ZM313.562 44.0028C313.89 44.1364 314.17 44.3015 314.408 44.4943L315.667 42.9398C315.265 42.6142 314.812 42.3524 314.317 42.1506L313.562 44.0028ZM314.432 44.5125C314.635 44.6676 314.803 44.8624 314.936 45.1081L316.694 44.1555C316.431 43.6694 316.08 43.2543 315.644 42.9216L314.432 44.5125ZM314.951 45.1357C315.058 45.3179 315.135 45.5775 315.135 45.9583H317.135C317.135 45.3023 317 44.6776 316.679 44.128L314.951 45.1357ZM315.135 45.9583C315.135 46.278 315.072 46.5612 314.953 46.82L316.769 47.6581C317.015 47.124 317.135 46.5533 317.135 45.9583H315.135ZM314.94 46.8494C314.836 47.0946 314.672 47.3233 314.427 47.5364L315.739 49.0456C316.196 48.6489 316.55 48.1762 316.782 47.6287L314.94 46.8494ZM314.411 47.5511C314.199 47.7431 313.905 47.9159 313.495 48.0486L314.11 49.9514C314.737 49.7487 315.296 49.4489 315.756 49.031L314.411 47.5511ZM313.461 48.0602C313.089 48.1955 312.629 48.2744 312.064 48.2744V50.2744C312.811 50.2744 313.51 50.1704 314.144 49.9398L313.461 48.0602ZM321.143 48.8857L320.749 49.8048L320.762 49.8104L320.775 49.8156L321.143 48.8857ZM319.45 47.7421L318.721 48.4268L318.732 48.4382L318.743 48.4493L319.45 47.7421ZM318.33 45.9125L317.396 46.2702L318.33 45.9125ZM318.33 41.0184L317.4 40.6503L317.396 40.6607L318.33 41.0184ZM319.45 39.1659L318.721 38.4812L318.716 38.4872L318.71 38.4932L319.45 39.1659ZM321.051 38.0224L321.451 38.9391L321.46 38.9348L321.47 38.9304L321.051 38.0224ZM324.779 37.9767L324.373 38.8905L324.382 38.8945L324.779 37.9767ZM326.174 39.0287L325.393 39.6534L325.399 39.6612L325.406 39.6689L326.174 39.0287ZM327.317 43.4197L326.32 43.343L326.317 43.3813V43.4197H327.317ZM327.272 43.9V44.9H328.074L328.248 44.1169L327.272 43.9ZM319.77 43.9V42.9H318.704L318.772 43.964L319.77 43.9ZM320.868 46.7359L320.138 47.4188L320.145 47.427L320.153 47.435L320.868 46.7359ZM324.939 47.5363L325.265 48.4817L325.274 48.4785L325.283 48.4752L324.939 47.5363ZM326.243 46.896L327.124 46.4228L326.617 45.4788L325.71 46.0497L326.243 46.896ZM326.906 48.1309L327.436 48.9789L328.23 48.4827L327.787 47.6578L326.906 48.1309ZM325.282 48.9314L325.641 49.8647V49.8647L325.282 48.9314ZM319.748 42.5507L318.754 42.4402L318.63 43.5507H319.748V42.5507ZM325.694 42.5507V43.5507H326.694V42.5507H325.694ZM324.962 39.9892L324.179 40.6115L324.188 40.6225L324.197 40.6334L324.962 39.9892ZM321.806 39.326L321.421 38.4029L321.414 38.4059L321.407 38.4089L321.806 39.326ZM320.845 40.0121L321.552 40.7192L321.561 40.7101L321.57 40.7008L320.845 40.0121ZM320.113 41.087L319.206 40.6659L319.2 40.6794L319.194 40.6931L320.113 41.087ZM323.247 48.2744C322.618 48.2744 322.042 48.1659 321.51 47.9557L320.775 49.8156C321.554 50.1238 322.381 50.2744 323.247 50.2744V48.2744ZM321.537 47.9665C321.012 47.7417 320.554 47.4321 320.157 47.035L318.743 48.4493C319.322 49.028 319.993 49.4807 320.749 49.8048L321.537 47.9665ZM320.179 47.0575C319.805 46.659 319.497 46.1637 319.263 45.5549L317.396 46.2702C317.711 47.0945 318.15 47.819 318.721 48.4268L320.179 47.0575ZM319.263 45.5549C319.04 44.9721 318.918 44.2809 318.918 43.4655H316.918C316.918 44.4796 317.07 45.4198 317.396 46.2702L319.263 45.5549ZM318.918 43.4655C318.918 42.65 319.04 41.9588 319.263 41.376L317.396 40.6607C317.07 41.5111 316.918 42.4513 316.918 43.4655H318.918ZM319.259 41.3864C319.512 40.7493 319.826 40.2396 320.19 39.8386L318.71 38.4932C318.16 39.0985 317.727 39.8237 317.4 40.6503L319.259 41.3864ZM320.179 39.8506C320.565 39.4399 320.988 39.1407 321.451 38.9391L320.652 37.1057C319.925 37.4225 319.281 37.8857 318.721 38.4812L320.179 39.8506ZM321.47 38.9304C321.936 38.7151 322.411 38.6107 322.904 38.6107V36.6107C322.115 36.6107 321.355 36.7808 320.632 37.1144L321.47 38.9304ZM322.904 38.6107C323.488 38.6107 323.971 38.7121 324.373 38.8905L325.185 37.0628C324.489 36.7533 323.722 36.6107 322.904 36.6107V38.6107ZM324.382 38.8945C324.804 39.0769 325.134 39.3299 325.393 39.6534L326.955 38.404C326.482 37.8126 325.882 37.3643 325.176 37.0588L324.382 38.8945ZM325.406 39.6689C325.692 40.0129 325.924 40.4409 326.088 40.971L327.998 40.3796C327.766 39.629 327.418 38.9593 326.942 38.3885L325.406 39.6689ZM326.088 40.971C326.252 41.5 326.34 42.1147 326.34 42.8251H328.34C328.34 41.9498 328.231 41.1314 327.998 40.3796L326.088 40.971ZM326.34 42.8251C326.34 42.9976 326.334 43.1703 326.32 43.343L328.315 43.4964C328.332 43.2728 328.34 43.049 328.34 42.8251H326.34ZM326.317 43.4197C326.317 43.5503 326.306 43.6347 326.296 43.6831L328.248 44.1169C328.298 43.8909 328.317 43.6551 328.317 43.4197H326.317ZM327.272 42.9H319.77V44.9H327.272V42.9ZM318.772 43.964C318.86 45.3269 319.289 46.5106 320.138 47.4188L321.599 46.053C321.136 45.5585 320.833 44.8516 320.768 43.836L318.772 43.964ZM320.153 47.435C321.034 48.336 322.172 48.765 323.475 48.765V46.765C322.644 46.765 322.044 46.5079 321.583 46.0368L320.153 47.435ZM323.475 48.765C324.105 48.765 324.704 48.675 325.265 48.4817L324.613 46.5909C324.289 46.7025 323.913 46.765 323.475 46.765V48.765ZM325.283 48.4752C325.807 48.2833 326.304 48.0389 326.775 47.7422L325.71 46.0497C325.358 46.2714 324.986 46.4539 324.595 46.5974L325.283 48.4752ZM325.362 47.3691L326.025 48.6041L327.787 47.6578L327.124 46.4228L325.362 47.3691ZM326.376 47.2829C325.948 47.5506 325.464 47.7899 324.923 47.998L325.641 49.8647C326.289 49.6155 326.888 49.3211 327.436 48.9789L326.376 47.2829ZM324.923 47.998C324.463 48.175 323.91 48.2744 323.247 48.2744V50.2744C324.108 50.2744 324.912 50.1452 325.641 49.8647L324.923 47.998ZM319.748 43.5507H325.694V41.5507H319.748V43.5507ZM326.694 42.5507C326.694 41.2983 326.426 40.1748 325.727 39.3451L324.197 40.6334C324.474 40.9623 324.694 41.5465 324.694 42.5507H326.694ZM325.745 39.367C325.053 38.4974 324.074 38.0973 322.949 38.0973V40.0973C323.563 40.0973 323.925 40.2918 324.179 40.6115L325.745 39.367ZM322.949 38.0973C322.421 38.0973 321.909 38.1997 321.421 38.4029L322.19 40.2491C322.434 40.1474 322.685 40.0973 322.949 40.0973V38.0973ZM321.407 38.4089C320.922 38.62 320.493 38.931 320.12 39.3233L321.57 40.7008C321.777 40.4834 321.989 40.3369 322.205 40.2431L321.407 38.4089ZM320.138 39.305C319.754 39.6889 319.447 40.1482 319.206 40.6659L321.02 41.5081C321.177 41.1719 321.357 40.9147 321.552 40.7192L320.138 39.305ZM319.194 40.6931C318.966 41.2254 318.823 41.8116 318.754 42.4402L320.741 42.6611C320.794 42.192 320.895 41.8023 321.033 41.4809L319.194 40.6931ZM330.087 49H329.087V50H330.087V49ZM330.087 37.8852V36.8852H329.087V37.8852H330.087ZM331.642 37.8852L332.639 37.8059L332.566 36.8852H331.642V37.8852ZM331.802 39.8977L330.805 39.977L330.879 40.8977H331.802V39.8977ZM331.871 39.8977V40.8977H332.465L332.749 40.3753L331.871 39.8977ZM333.243 38.2282L332.643 37.4282L332.632 37.4364L333.243 38.2282ZM336.216 37.8394L337.192 38.0564L337.371 37.2512L336.615 36.9224L336.216 37.8394ZM335.85 39.4861L335.534 40.4348L336.586 40.7854L336.826 39.703L335.85 39.4861ZM335.347 39.3489L335.151 40.3294L335.347 39.3489ZM333.289 39.8749L332.696 39.0692L332.691 39.0735L332.685 39.0778L333.289 39.8749ZM331.962 41.8646L331.035 41.4906L330.962 41.6705V41.8646H331.962ZM331.962 49V50H332.962V49H331.962ZM331.087 49V37.8852H329.087V49H331.087ZM330.087 38.8852H331.642V36.8852H330.087V38.8852ZM330.645 37.9645L330.805 39.977L332.799 39.8184L332.639 37.8059L330.645 37.9645ZM331.802 40.8977H331.871V38.8977H331.802V40.8977ZM332.749 40.3753C333.076 39.7739 333.449 39.3325 333.854 39.02L332.632 37.4364C331.97 37.9473 331.428 38.6189 330.992 39.4202L332.749 40.3753ZM333.843 39.0282C334.232 38.7365 334.619 38.6107 335.027 38.6107V36.6107C334.154 36.6107 333.352 36.8966 332.643 37.4282L333.843 39.0282ZM335.027 38.6107C335.353 38.6107 335.611 38.6666 335.817 38.7565L336.615 36.9224C336.12 36.7073 335.585 36.6107 335.027 36.6107V38.6107ZM335.24 37.6225L334.874 39.2691L336.826 39.703L337.192 38.0564L335.24 37.6225ZM336.166 38.5374C335.953 38.4663 335.745 38.4086 335.543 38.3683L335.151 40.3294C335.254 40.3501 335.381 40.3839 335.534 40.4348L336.166 38.5374ZM335.543 38.3683C335.304 38.3204 335.042 38.3031 334.775 38.3031V40.3031C334.966 40.3031 335.085 40.3163 335.151 40.3294L335.543 38.3683ZM334.775 38.3031C334.024 38.3031 333.325 38.6067 332.696 39.0692L333.881 40.6805C334.289 40.3807 334.581 40.3031 334.775 40.3031V38.3031ZM332.685 39.0778C331.974 39.6159 331.446 40.4705 331.035 41.4906L332.89 42.2385C333.241 41.368 333.597 40.8961 333.893 40.672L332.685 39.0778ZM330.962 41.8646V49H332.962V41.8646H330.962ZM331.962 48H330.087V50H331.962V48ZM340.997 49L340.057 49.3388L340.295 50H340.997V49ZM336.995 37.8852V36.8852H335.572L336.054 38.224L336.995 37.8852ZM338.939 37.8852L339.888 37.569L339.66 36.8852H338.939V37.8852ZM341.043 44.1973L342 43.9051L341.996 43.893L341.992 43.8811L341.043 44.1973ZM341.546 45.8439L340.59 46.1362L340.594 46.1482L340.598 46.1602L341.546 45.8439ZM342.072 47.4677L341.118 47.7675L341.338 48.4677H342.072V47.4677ZM342.164 47.4677V48.4677H342.898L343.118 47.7675L342.164 47.4677ZM342.667 45.8439L341.711 45.5517L342.667 45.8439ZM343.17 44.1973L342.221 43.8811L342.217 43.893L342.214 43.9051L343.17 44.1973ZM345.274 37.8852V36.8852H344.553L344.326 37.569L345.274 37.8852ZM347.127 37.8852L348.069 38.2188L348.541 36.8852H347.127V37.8852ZM343.193 49V50H343.9L344.136 49.3336L343.193 49ZM341.938 48.6612L337.936 37.5464L336.054 38.224L340.057 49.3388L341.938 48.6612ZM336.995 38.8852H338.939V36.8852H336.995V38.8852ZM337.991 38.2014L340.095 44.5135L341.992 43.8811L339.888 37.569L337.991 38.2014ZM340.087 44.4895C340.255 45.0384 340.422 45.5873 340.59 46.1362L342.503 45.5517C342.335 45.0028 342.167 44.454 342 43.9051L340.087 44.4895ZM340.598 46.1602C340.779 46.7038 340.952 47.2396 341.118 47.7675L343.026 47.1679C342.857 46.6286 342.68 46.0819 342.495 45.5277L340.598 46.1602ZM342.072 48.4677H342.164V46.4677H342.072V48.4677ZM343.118 47.7675C343.286 47.2313 343.455 46.6875 343.623 46.1362L341.711 45.5517C341.544 46.0981 341.377 46.6368 341.21 47.1679L343.118 47.7675ZM343.623 46.1362C343.791 45.5873 343.959 45.0384 344.126 44.4895L342.214 43.9051C342.046 44.454 341.878 45.0028 341.711 45.5517L343.623 46.1362ZM344.119 44.5135L346.223 38.2014L344.326 37.569L342.221 43.8811L344.119 44.5135ZM345.274 38.8852H347.127V36.8852H345.274V38.8852ZM346.184 37.5515L342.25 48.6664L344.136 49.3336L348.069 38.2188L346.184 37.5515ZM343.193 48H340.997V50H343.193V48ZM349.272 49H348.272V50H349.272V49ZM349.272 37.8852V36.8852H348.272V37.8852H349.272ZM351.147 37.8852H352.147V36.8852H351.147V37.8852ZM351.147 49V50H352.147V49H351.147ZM349.295 35.2551L348.611 35.9847L348.622 35.995L348.633 36.005L349.295 35.2551ZM349.295 33.517L349.953 34.2696L349.956 34.2668L349.295 33.517ZM351.147 33.517L350.463 34.2465L350.487 34.2685L350.511 34.2889L351.147 33.517ZM351.147 35.2551L350.486 34.5053L350.474 34.5153L350.463 34.5256L351.147 35.2551ZM350.272 49V37.8852H348.272V49H350.272ZM349.272 38.8852H351.147V36.8852H349.272V38.8852ZM350.147 37.8852V49H352.147V37.8852H350.147ZM351.147 48H349.272V50H351.147V48ZM350.232 34.5982C350.095 34.5982 350.021 34.5628 349.956 34.5053L348.633 36.005C349.086 36.4049 349.638 36.5982 350.232 36.5982V34.5982ZM349.979 34.5256C349.952 34.5009 349.945 34.4858 349.942 34.4783C349.938 34.4697 349.929 34.4435 349.929 34.3861H347.929C347.929 34.998 348.154 35.5568 348.611 35.9847L349.979 34.5256ZM349.929 34.3861C349.929 34.3148 349.94 34.286 349.942 34.2824C349.943 34.2801 349.943 34.2797 349.943 34.2796C349.943 34.2794 349.946 34.276 349.953 34.2696L348.636 32.7644C348.146 33.1934 347.929 33.7732 347.929 34.3861H349.929ZM349.956 34.2668C350.021 34.2094 350.095 34.174 350.232 34.174V32.174C349.638 32.174 349.086 32.3673 348.633 32.7672L349.956 34.2668ZM350.232 34.174C350.37 34.174 350.423 34.2087 350.463 34.2465L351.831 32.7875C351.384 32.3679 350.826 32.174 350.232 32.174V34.174ZM350.511 34.2889C350.522 34.2974 350.526 34.3023 350.526 34.3028C350.526 34.3032 350.526 34.3027 350.526 34.3027C350.526 34.3029 350.528 34.3078 350.531 34.3198C350.533 34.3322 350.536 34.3536 350.536 34.3861H352.536C352.536 33.7519 352.295 33.1671 351.783 32.7451L350.511 34.2889ZM350.536 34.3861C350.536 34.4355 350.527 34.4545 350.526 34.458C350.525 34.4611 350.518 34.477 350.486 34.5053L351.809 36.005C352.287 35.5833 352.536 35.0189 352.536 34.3861H350.536ZM350.463 34.5256C350.423 34.5635 350.37 34.5982 350.232 34.5982V36.5982C350.826 36.5982 351.384 36.4042 351.831 35.9847L350.463 34.5256ZM357.233 48.8857L357.608 47.9587L357.233 48.8857ZM355.563 47.765L354.823 48.4377L354.834 48.4494L354.845 48.4608L355.563 47.765ZM354.465 45.9354L353.523 46.2693L353.527 46.2812L353.532 46.2931L354.465 45.9354ZM354.511 40.9955L355.438 41.3703L355.441 41.3635L354.511 40.9955ZM357.37 37.9995L357.002 37.0695L356.995 37.0726L357.37 37.9995ZM361.304 37.9995L361.751 37.1051L361.304 37.9995ZM362.676 38.9143L363.465 39.5283L364.041 38.7873L363.338 38.1653L362.676 38.9143ZM361.715 40.1493L361.044 40.8908L361.843 41.6136L362.505 40.7632L361.715 40.1493ZM360.686 39.4403L360.224 40.3269L360.231 40.3309L360.239 40.3348L360.686 39.4403ZM358.102 39.4861L358.523 40.3931L358.536 40.387L358.549 40.3805L358.102 39.4861ZM356.272 41.7273L355.326 41.403L355.323 41.4112L355.321 41.4195L356.272 41.7273ZM356.272 45.2036L355.321 45.5114L356.272 45.2036ZM356.958 46.5529L356.162 47.158L356.176 47.1759L356.19 47.1931L356.958 46.5529ZM358.056 47.422L357.609 48.3164L357.622 48.3229L357.635 48.329L358.056 47.422ZM360.869 47.3991L361.316 48.2936L361.328 48.2873L360.869 47.3991ZM362.058 46.5986L362.895 46.051L362.267 45.0918L361.402 45.844L362.058 46.5986ZM362.882 47.8565L363.542 48.6077L364.194 48.0349L363.718 47.3088L362.882 47.8565ZM361.212 48.9085L361.583 49.837L361.593 49.833L361.603 49.8289L361.212 48.9085ZM359.291 48.2744C358.68 48.2744 358.122 48.1668 357.608 47.9587L356.858 49.8126C357.624 50.1229 358.438 50.2744 359.291 50.2744V48.2744ZM357.608 47.9587C357.094 47.7509 356.655 47.4553 356.281 47.0692L354.845 48.4608C355.416 49.0506 356.09 49.502 356.858 49.8126L357.608 47.9587ZM356.303 47.0923C355.939 46.6923 355.635 46.193 355.399 45.5778L353.532 46.2931C353.845 47.111 354.272 47.8315 354.823 48.4377L356.303 47.0923ZM355.408 45.6016C355.193 44.9941 355.077 44.2863 355.077 43.4655H353.077C353.077 44.4742 353.22 45.413 353.523 46.2693L355.408 45.6016ZM355.077 43.4655C355.077 42.6384 355.205 41.9462 355.438 41.3703L353.584 40.6207C353.238 41.4779 353.077 42.4325 353.077 43.4655H355.077ZM355.441 41.3635C355.688 40.7389 356.01 40.237 356.395 39.8392L354.96 38.4469C354.37 39.0553 353.913 39.7884 353.581 40.6275L355.441 41.3635ZM356.395 39.8392C356.788 39.4345 357.236 39.1327 357.745 38.9265L356.995 37.0726C356.223 37.3848 355.543 37.8453 354.96 38.4469L356.395 39.8392ZM357.738 38.9295C358.274 38.7173 358.835 38.6107 359.428 38.6107V36.6107C358.588 36.6107 357.777 36.7633 357.002 37.0696L357.738 38.9295ZM359.428 38.6107C360.045 38.6107 360.508 38.72 360.856 38.894L361.751 37.1051C361.062 36.7607 360.276 36.6107 359.428 36.6107V38.6107ZM360.856 38.894C361.304 39.1179 361.688 39.3755 362.013 39.6633L363.338 38.1653C362.871 37.7518 362.34 37.3995 361.751 37.1051L360.856 38.894ZM361.886 38.3004L360.926 39.5354L362.505 40.7632L363.465 39.5283L361.886 38.3004ZM362.386 39.4078C362.002 39.0606 361.585 38.7716 361.133 38.5459L360.239 40.3348C360.519 40.475 360.788 40.6587 361.044 40.8908L362.386 39.4078ZM361.149 38.5538C360.639 38.2879 360.081 38.1659 359.497 38.1659V40.1659C359.797 40.1659 360.032 40.2269 360.224 40.3269L361.149 38.5538ZM359.497 38.1659C358.847 38.1659 358.228 38.305 357.655 38.5917L358.549 40.3805C358.83 40.2402 359.14 40.1659 359.497 40.1659V38.1659ZM357.681 38.5791C357.108 38.8448 356.621 39.2333 356.223 39.7304L357.785 40.9798C357.997 40.7147 358.241 40.5238 358.523 40.3931L357.681 38.5791ZM356.223 39.7304C355.836 40.2143 355.541 40.7772 355.326 41.403L357.218 42.0517C357.369 41.6102 357.562 41.2583 357.785 40.9798L356.223 39.7304ZM355.321 41.4195C355.116 42.053 355.021 42.7384 355.021 43.4655H357.021C357.021 42.9118 357.093 42.4384 357.224 42.0352L355.321 41.4195ZM355.021 43.4655C355.021 44.1925 355.116 44.8779 355.321 45.5114L357.224 44.8958C357.093 44.4925 357.021 44.0192 357.021 43.4655H355.021ZM355.321 45.5114C355.518 46.1223 355.796 46.6757 356.162 47.158L357.754 45.9478C357.542 45.6677 357.361 45.3216 357.224 44.8958L355.321 45.5114ZM356.19 47.1931C356.583 47.6652 357.059 48.0414 357.609 48.3164L358.503 46.5275C358.199 46.3757 357.943 46.1724 357.726 45.9127L356.19 47.1931ZM357.635 48.329C358.203 48.5926 358.813 48.7193 359.451 48.7193V46.7193C359.083 46.7193 358.763 46.6477 358.477 46.515L357.635 48.329ZM359.451 48.7193C360.111 48.7193 360.739 48.5823 361.316 48.2935L360.422 46.5047C360.145 46.6429 359.828 46.7193 359.451 46.7193V48.7193ZM361.328 48.2873C361.836 48.0246 362.3 47.714 362.714 47.3533L361.402 45.844C361.116 46.0932 360.786 46.3162 360.41 46.5109L361.328 48.2873ZM361.222 47.1463L362.045 48.4042L363.718 47.3088L362.895 46.051L361.222 47.1463ZM362.221 47.1053C361.798 47.4779 361.332 47.7711 360.821 47.9882L361.603 49.8289C362.312 49.5275 362.959 49.1194 363.542 48.6077L362.221 47.1053ZM360.841 47.98C360.352 48.1757 359.837 48.2744 359.291 48.2744V50.2744C360.086 50.2744 360.853 50.1292 361.583 49.837L360.841 47.98ZM367.24 48.8857L366.846 49.8048L366.859 49.8104L366.872 49.8156L367.24 48.8857ZM365.548 47.7421L364.819 48.4268L364.829 48.4382L364.84 48.4493L365.548 47.7421ZM364.427 45.9125L363.493 46.2702L364.427 45.9125ZM364.427 41.0184L363.497 40.6503L363.493 40.6607L364.427 41.0184ZM365.548 39.1659L364.819 38.4812L364.813 38.4872L364.808 38.4932L365.548 39.1659ZM367.148 38.0224L367.548 38.9391L367.558 38.9348L367.568 38.9304L367.148 38.0224ZM370.876 37.9767L370.47 38.8905L370.479 38.8945L370.876 37.9767ZM372.271 39.0287L371.49 39.6534L371.497 39.6612L371.503 39.6689L372.271 39.0287ZM373.415 43.4197L372.418 43.343L372.415 43.3813V43.4197H373.415ZM373.369 43.9V44.9H374.171L374.345 44.1169L373.369 43.9ZM365.868 43.9V42.9H364.802L364.87 43.964L365.868 43.9ZM366.965 46.7359L366.235 47.4188L366.243 47.427L366.25 47.435L366.965 46.7359ZM371.036 47.5363L371.362 48.4817L371.372 48.4785L371.381 48.4752L371.036 47.5363ZM372.34 46.896L373.221 46.4228L372.714 45.4788L371.807 46.0497L372.34 46.896ZM373.003 48.1309L373.533 48.9789L374.327 48.4827L373.884 47.6578L373.003 48.1309ZM371.379 48.9314L371.738 49.8647V49.8647L371.379 48.9314ZM365.845 42.5507L364.851 42.4402L364.728 43.5507H365.845V42.5507ZM371.791 42.5507V43.5507H372.791V42.5507H371.791ZM371.059 39.9892L370.276 40.6115L370.285 40.6225L370.294 40.6334L371.059 39.9892ZM367.903 39.326L367.519 38.4029L367.511 38.4059L367.504 38.4089L367.903 39.326ZM366.943 40.0121L367.65 40.7192L367.659 40.7101L367.668 40.7008L366.943 40.0121ZM366.211 41.087L365.304 40.6659L365.298 40.6794L365.292 40.6931L366.211 41.087ZM369.344 48.2744C368.715 48.2744 368.139 48.1659 367.608 47.9557L366.872 49.8156C367.652 50.1238 368.479 50.2744 369.344 50.2744V48.2744ZM367.634 47.9665C367.109 47.7417 366.652 47.4321 366.255 47.035L364.84 48.4493C365.419 49.028 366.09 49.4807 366.846 49.8048L367.634 47.9665ZM366.276 47.0575C365.902 46.659 365.594 46.1637 365.361 45.5549L363.493 46.2702C363.809 47.0945 364.248 47.819 364.819 48.4268L366.276 47.0575ZM365.361 45.5549C365.138 44.9721 365.015 44.2809 365.015 43.4655H363.015C363.015 44.4796 363.167 45.4198 363.493 46.2702L365.361 45.5549ZM365.015 43.4655C365.015 42.65 365.138 41.9588 365.361 41.376L363.493 40.6607C363.167 41.5111 363.015 42.4513 363.015 43.4655H365.015ZM365.357 41.3864C365.609 40.7493 365.923 40.2396 366.287 39.8386L364.808 38.4932C364.257 39.0985 363.824 39.8237 363.497 40.6503L365.357 41.3864ZM366.276 39.8506C366.662 39.4399 367.086 39.1407 367.548 38.9391L366.749 37.1057C366.022 37.4225 365.378 37.8857 364.819 38.4812L366.276 39.8506ZM367.568 38.9304C368.034 38.7151 368.509 38.6107 369.001 38.6107V36.6107C368.213 36.6107 367.452 36.7808 366.729 37.1144L367.568 38.9304ZM369.001 38.6107C369.586 38.6107 370.069 38.7121 370.47 38.8905L371.282 37.0628C370.586 36.7533 369.819 36.6107 369.001 36.6107V38.6107ZM370.479 38.8945C370.901 39.0769 371.232 39.3299 371.49 39.6534L373.052 38.404C372.579 37.8126 371.98 37.3643 371.273 37.0588L370.479 38.8945ZM371.503 39.6689C371.79 40.0129 372.021 40.4409 372.185 40.971L374.096 40.3796C373.863 39.629 373.515 38.9593 373.04 38.3885L371.503 39.6689ZM372.185 40.971C372.349 41.5 372.438 42.1147 372.438 42.8251H374.438C374.438 41.9498 374.328 41.1314 374.096 40.3796L372.185 40.971ZM372.438 42.8251C372.438 42.9976 372.431 43.1703 372.418 43.343L374.412 43.4964C374.429 43.2728 374.438 43.049 374.438 42.8251H372.438ZM372.415 43.4197C372.415 43.5503 372.404 43.6347 372.393 43.6831L374.345 44.1169C374.396 43.8909 374.415 43.6551 374.415 43.4197H372.415ZM373.369 42.9H365.868V44.9H373.369V42.9ZM364.87 43.964C364.957 45.3269 365.386 46.5106 366.235 47.4188L367.696 46.053C367.234 45.5585 366.931 44.8516 366.866 43.836L364.87 43.964ZM366.25 47.435C367.131 48.336 368.269 48.765 369.573 48.765V46.765C368.741 46.765 368.141 46.5079 367.68 46.0368L366.25 47.435ZM369.573 48.765C370.202 48.765 370.802 48.675 371.362 48.4817L370.71 46.5909C370.387 46.7025 370.011 46.765 369.573 46.765V48.765ZM371.381 48.4752C371.904 48.2833 372.402 48.0389 372.873 47.7422L371.807 46.0497C371.455 46.2714 371.084 46.4539 370.692 46.5974L371.381 48.4752ZM371.459 47.3691L372.122 48.6041L373.884 47.6578L373.221 46.4228L371.459 47.3691ZM372.473 47.2829C372.045 47.5506 371.562 47.7899 371.02 47.998L371.738 49.8647C372.386 49.6155 372.986 49.3211 373.533 48.9789L372.473 47.2829ZM371.02 47.998C370.56 48.175 370.007 48.2744 369.344 48.2744V50.2744C370.206 50.2744 371.009 50.1452 371.738 49.8647L371.02 47.998ZM365.845 43.5507H371.791V41.5507H365.845V43.5507ZM372.791 42.5507C372.791 41.2983 372.523 40.1748 371.824 39.3451L370.294 40.6334C370.571 40.9623 370.791 41.5465 370.791 42.5507H372.791ZM371.842 39.367C371.151 38.4974 370.171 38.0973 369.047 38.0973V40.0973C369.66 40.0973 370.022 40.2918 370.276 40.6115L371.842 39.367ZM369.047 38.0973C368.518 38.0973 368.006 38.1997 367.519 38.4029L368.288 40.2491C368.532 40.1474 368.782 40.0973 369.047 40.0973V38.0973ZM367.504 38.4089C367.019 38.62 366.59 38.931 366.218 39.3233L367.668 40.7008C367.874 40.4834 368.086 40.3369 368.302 40.2431L367.504 38.4089ZM366.236 39.305C365.852 39.6889 365.544 40.1482 365.304 40.6659L367.118 41.5081C367.274 41.1719 367.454 40.9147 367.65 40.7192L366.236 39.305ZM365.292 40.6931C365.063 41.2254 364.921 41.8116 364.851 42.4402L366.839 42.6611C366.891 42.192 366.992 41.8023 367.13 41.4809L365.292 40.6931Z" fill="#9595EE" fill-opacity="0.5"/>
</g>
<path d="M12 10C12 4.47715 16.4772 0 22 0H106V84H22C16.4772 84 12 79.5229 12 74V10Z" fill="#FB5A77"/>
<path d="M59 27C56.6131 27 54.3239 27.9693 52.636 29.6947C50.9482 31.4201 50 33.7603 50 36.2004C50 41.3118 57 55 59 55C60.69 55 68 41.2914 68 36.2004C68 33.7603 67.0518 31.4201 65.364 29.6947C63.6761 27.9693 61.3869 27 59 27ZM59 41.0051C58.2089 41.0051 57.4355 40.7653 56.7777 40.316C56.1199 39.8667 55.6072 39.228 55.3045 38.4808C55.0017 37.7337 54.9225 36.9115 55.0769 36.1183C55.2312 35.3251 55.6122 34.5965 56.1716 34.0246C56.731 33.4527 57.4437 33.0633 58.2196 32.9055C58.9956 32.7477 59.7998 32.8287 60.5307 33.1382C61.2616 33.4477 61.8863 33.9718 62.3259 34.6443C62.7654 35.3167 63 36.1073 63 36.916C63 38.0005 62.5786 39.0406 61.8284 39.8074C61.0783 40.5743 60.0609 41.0051 59 41.0051Z" fill="white"/>
</g>
<defs>
<filter id="filter0_dd" x="0" y="0" width="1123" height="108" filterUnits="userSpaceOnUse" color-interpolation-filters="sRGB">
<feFlood flood-opacity="0" result="BackgroundImageFix"/>
<feColorMatrix in="SourceAlpha" type="matrix" values="0 0 0 0 0 0 0 0 0 0 0 0 0 0 0 0 0 0 127 0"/>
<feOffset dy="12"/>
<feGaussianBlur stdDeviation="6"/>
<feColorMatrix type="matrix" values="0 0 0 0 0.584314 0 0 0 0 0.584314 0 0 0 0 0.933333 0 0 0 0.3 0"/>
<feBlend mode="normal" in2="BackgroundImageFix" result="effect1_dropShadow"/>
<feColorMatrix in="SourceAlpha" type="matrix" values="0 0 0 0 0 0 0 0 0 0 0 0 0 0 0 0 0 0 127 0"/>
<feOffset dy="4"/>
<feGaussianBlur stdDeviation="2"/>
<feColorMatrix type="matrix" values="0 0 0 0 0.219608 0 0 0 0 0.219608 0 0 0 0 0.47451 0 0 0 0.3 0"/>
<feBlend mode="normal" in2="effect1_dropShadow" result="effect2_dropShadow"/>
<feBlend mode="normal" in="SourceGraphic" in2="effect2_dropShadow" result="shape"/>
</filter>
</defs>
</svg>
