<svg width="138" height="33" viewBox="0 0 138 33" fill="none" xmlns="http://www.w3.org/2000/svg">
<path d="M30.5413 17.3757C30.4452 18.7131 30.3243 20.4665 30.303 20.7012C30.1216 22.9206 29.9473 25.1471 29.7481 27.3665C29.5868 28.6662 28.9606 29.8637 27.9852 30.7378C27.0098 31.6118 25.7511 32.1034 24.4415 32.1218H21.3757C21.2888 32.1226 21.2027 32.1053 21.1229 32.071C21.0431 32.0366 20.9713 31.9861 20.9121 31.9225C20.8529 31.859 20.8075 31.7838 20.779 31.7018C20.7504 31.6197 20.7392 31.5326 20.7461 31.446L20.8848 29.6677L21.4859 21.7754C22.7225 21.5013 23.9355 21.1303 25.1138 20.6657C26.097 20.2769 27.0483 19.812 27.9591 19.275C28.8832 18.7329 29.7485 18.0964 30.5413 17.3757Z" fill="#1730B6"/>
<path d="M0.558594 17.3757C0.654625 18.7131 0.775552 20.4665 0.796893 20.7012C0.978284 22.9206 1.15256 25.1471 1.35529 27.3665C1.5151 28.6662 2.14035 29.8641 3.11531 30.7383C4.09026 31.6126 5.34892 32.1041 6.65833 32.1218H9.72421C9.81108 32.1226 9.89715 32.1053 9.97696 32.071C10.0568 32.0366 10.1286 31.9861 10.1878 31.9225C10.247 31.859 10.2923 31.7838 10.3209 31.7018C10.3495 31.6197 10.3607 31.5326 10.3537 31.446L10.2186 29.6677L9.60328 21.786C8.36674 21.512 7.15371 21.1409 5.97545 20.6764C4.99222 20.2876 4.04087 19.8226 3.13009 19.2857C2.20925 18.7396 1.34748 18.0995 0.558594 17.3757Z" fill="#1730B6"/>
<path d="M17.0722 20.6657C17.0722 20.8684 17.0722 21.0711 17.0722 21.2739C17.0732 21.472 17.0345 21.6682 16.9584 21.8511C16.8823 22.034 16.7703 22.1998 16.6291 22.3387C16.4879 22.4776 16.3203 22.5868 16.1361 22.6599C15.952 22.733 15.7551 22.7684 15.5571 22.7641C15.3589 22.7693 15.1616 22.7349 14.9769 22.6627C14.7923 22.5906 14.6239 22.4822 14.4817 22.344C14.3395 22.2058 14.2264 22.0406 14.1491 21.858C14.0717 21.6754 14.0317 21.4793 14.0312 21.281C14.0312 21.0783 14.0312 20.8755 14.0312 20.6728C14.0312 20.4487 14.0312 20.2282 14.0312 20.0041C14.0363 19.8118 14.0793 19.6224 14.1577 19.4468C14.2361 19.2711 14.3484 19.1127 14.4882 18.9805C14.6279 18.8483 14.7924 18.745 14.9722 18.6766C15.1519 18.6081 15.3435 18.5758 15.5357 18.5814H15.5855C15.7778 18.5758 15.9693 18.6081 16.1491 18.6766C16.3288 18.745 16.4933 18.8483 16.6331 18.9805C16.7729 19.1127 16.8852 19.2711 16.9636 19.4468C17.042 19.6224 17.0849 19.8118 17.09 20.0041C17.09 20.2282 17.09 20.4487 17.09 20.6728L17.0722 20.6657Z" fill="#6E62DC"/>
<path d="M31.0998 14.5017C31.1027 14.5847 31.0869 14.6674 31.0536 14.7435C30.4703 15.3588 26.8176 19.1645 18.783 20.1248V19.947C18.7738 19.5378 18.6834 19.1346 18.517 18.7607C18.3506 18.3868 18.1115 18.0497 17.8137 17.7691C17.5158 17.4884 17.1651 17.2698 16.782 17.1259C16.3988 16.982 15.9909 16.9157 15.582 16.9309H15.4859C15.0767 16.9147 14.6684 16.9803 14.2848 17.1239C13.9013 17.2674 13.5502 17.486 13.2521 17.7668C12.9541 18.0477 12.715 18.3851 12.5489 18.7595C12.3829 19.1338 12.2931 19.5375 12.2849 19.947C12.2849 20.0074 12.2849 20.0644 12.2849 20.1248C4.28588 19.1645 0.629594 15.3588 0.0462949 14.7435C0.0146493 14.6669 -0.00108171 14.5846 5.77591e-05 14.5017C5.77591e-05 12.67 5.77591e-05 10.8347 5.77591e-05 9.00302C0.000977715 8.36385 0.121615 7.7305 0.355728 7.13575C0.729022 6.21868 1.36964 5.43515 2.19427 4.8871C3.01889 4.33904 3.98936 4.05181 4.97944 4.06276H7.68964C7.84575 4.06106 7.99687 4.11775 8.11334 4.22172C8.22981 4.32568 8.30322 4.46942 8.31918 4.62472L8.84557 11.5389L7.03521 11.5674C7.63274 11.8839 10.3429 13.0719 15.5499 13.1537C20.7534 13.0719 23.4707 11.8839 24.086 11.5674L22.2721 11.5389L22.7807 4.62472C22.7924 4.46745 22.8629 4.32038 22.9783 4.2129C23.0937 4.10541 23.2454 4.04545 23.4031 4.04498H26.1133C27.1034 4.03402 28.0739 4.32125 28.8985 4.86931C29.7231 5.41737 30.3638 6.20089 30.7371 7.11797C30.9712 7.71272 31.0918 8.34606 31.0927 8.98524C31.1034 10.8347 31.0892 12.67 31.0998 14.5017Z" fill="#1730B6"/>
<path d="M37.0346 31.8408C36.3596 31.8542 35.6886 31.7333 35.0606 31.4851C34.4956 31.254 33.9872 30.9033 33.5704 30.4572C33.1595 30.0138 32.8371 29.4959 32.6207 28.9314C32.3912 28.3249 32.2778 27.6806 32.2864 27.0321C32.2678 26.2501 32.4552 25.477 32.8298 24.7903C33.2043 24.1036 33.7529 23.5275 34.4204 23.1198C35.8431 22.1713 38.1218 21.5406 41.2564 21.2276C41.2495 20.6101 41.0282 20.0141 40.6304 19.5417C40.2582 19.1268 39.6322 18.9181 38.7525 18.9157C38.0554 18.9184 37.3647 19.0485 36.7145 19.2999C35.9651 19.5969 35.2407 19.9537 34.5485 20.3669L33.293 18.0657C33.2336 17.9567 33.1964 17.837 33.1834 17.7136C33.1704 17.5902 33.1819 17.4654 33.2173 17.3464C33.2526 17.2275 33.3111 17.1166 33.3894 17.0204C33.4677 16.9241 33.5643 16.8442 33.6735 16.7853C34.4453 16.3766 35.248 16.0294 36.0743 15.7467C37.2262 15.355 38.4357 15.159 39.6523 15.167C41.7081 15.167 43.2754 15.7503 44.3543 16.9169C45.4332 18.0835 45.9738 19.8974 45.9762 22.3586V30.539C45.9752 30.7875 45.8759 31.0254 45.6999 31.2007C45.5239 31.376 45.2856 31.4745 45.0372 31.4745H42.1243L41.8041 29.8384H41.6761C41.0304 30.4151 40.3132 30.9064 39.5421 31.3002C38.761 31.6768 37.9015 31.8621 37.0346 31.8408ZM38.6387 28.1809C39.1229 28.1936 39.6009 28.0704 40.0187 27.8253C40.4625 27.5417 40.8719 27.2075 41.2386 26.8294V24.0409C39.5788 24.2781 38.4241 24.6207 37.7744 25.0688C37.4905 25.2329 37.253 25.4666 37.0844 25.7479C36.9157 26.0291 36.8215 26.3487 36.8105 26.6765C36.7934 26.8925 36.8299 27.1094 36.9168 27.308C37.0036 27.5065 37.1382 27.6806 37.3085 27.8146C37.7006 28.0773 38.1673 28.2058 38.6387 28.1809Z" fill="#1730B6"/>
<path d="M52.9163 31.8408C52.2412 31.8541 51.5703 31.7332 50.9423 31.4851C50.3708 31.2516 49.8573 30.8959 49.4378 30.443C49.0268 30.0003 48.7055 29.4822 48.4918 28.9171C48.2602 28.3135 48.1456 27.6714 48.1539 27.025C48.1334 26.2447 48.3181 25.4727 48.6895 24.7862C49.0608 24.0996 49.6059 23.5225 50.2701 23.1126C51.6928 22.1642 53.9714 21.5334 57.1061 21.2204C57.0991 20.6029 56.8779 20.007 56.4801 19.5346C56.1055 19.1196 55.4807 18.911 54.6057 18.9086C53.9086 18.9107 53.2178 19.0409 52.5677 19.2927C51.8168 19.589 51.0912 19.9458 50.3982 20.3597L49.1426 18.0585C49.0833 17.9495 49.046 17.8299 49.0331 17.7065C49.0201 17.583 49.0316 17.4582 49.0669 17.3393C49.1023 17.2203 49.1608 17.1095 49.2391 17.0132C49.3174 16.9169 49.414 16.837 49.5232 16.7781C50.2958 16.3657 51.0997 16.0148 51.9275 15.7289C53.0795 15.3371 54.2889 15.1412 55.5056 15.1492C57.5613 15.1492 59.1287 15.7325 60.2075 16.8991C61.2864 18.0657 61.827 19.8796 61.8294 22.3408V30.5212C61.8284 30.7696 61.7291 31.0075 61.5531 31.1829C61.3771 31.3582 61.1388 31.4566 60.8904 31.4566H57.9739L57.6538 29.8205H57.5258C56.8746 30.3986 56.1513 30.8899 55.374 31.2823C54.6096 31.6579 53.7679 31.8491 52.9163 31.8408ZM54.5239 28.1809C55.0069 28.1931 55.4837 28.0699 55.9004 27.8252C56.3442 27.5416 56.7536 27.2074 57.1203 26.8294V24.0409C55.4605 24.278 54.3058 24.6207 53.6561 25.0688C53.3722 25.2329 53.1347 25.4666 52.966 25.7478C52.7974 26.0291 52.7032 26.3487 52.6922 26.6764C52.676 26.8924 52.7129 27.109 52.7997 27.3074C52.8865 27.5058 53.0206 27.6799 53.1902 27.8146C53.5835 28.0775 54.0514 28.206 54.5239 28.1809Z" fill="#1730B6"/>
<path d="M21.5294 3.87791C21.4764 3.56542 21.3881 3.25995 21.2662 2.9674C20.9007 2.12284 20.3036 1.39903 19.5439 0.879746C18.7841 0.360461 17.8929 0.0669294 16.9733 0.0331213C16.5002 0.0331213 16.0272 0.00466773 15.5506 0.00111103C15.074 -0.00244567 14.6045 0.00111103 14.1279 0.0331213C13.2091 0.0665681 12.3186 0.360047 11.56 0.879458C10.8013 1.39887 10.2056 2.12289 9.84208 2.9674C9.71897 3.25982 9.62948 3.56529 9.57533 3.87791C9.57533 3.92771 9.54688 4.05931 9.54688 4.05931C11.4578 4.81442 13.4959 5.19596 15.5506 5.18322C17.6064 5.19597 19.6457 4.81445 21.5578 4.05931C21.5578 4.05931 21.5365 3.91348 21.5294 3.87791ZM15.5506 3.98106C14.4401 3.98116 13.3323 3.87276 12.2429 3.6574C12.4111 3.3654 12.6413 3.11378 12.9172 2.92023C13.1931 2.72668 13.508 2.59588 13.8398 2.53704C14.2032 2.47982 14.5712 2.4572 14.9388 2.46946H16.1481C16.5217 2.45617 16.8957 2.4788 17.2649 2.53704C17.5947 2.59779 17.9073 2.72943 18.1812 2.92287C18.4551 3.11631 18.6837 3.36693 18.8512 3.6574C17.7641 3.87215 16.6587 3.98054 15.5506 3.98106Z" fill="#FB5A77"/>
<path d="M70.2832 31.8406C69.3581 31.8522 68.4424 31.654 67.605 31.2608C66.8012 30.8758 66.0975 30.3097 65.5492 29.607C64.9491 28.8267 64.5026 27.9396 64.2332 26.9928C63.9094 25.855 63.7537 24.6759 63.7708 23.493C63.7518 22.304 63.9407 21.1207 64.3292 19.9968C64.6611 19.0446 65.1584 18.1584 65.7982 17.3791C66.3842 16.6836 67.1117 16.121 67.9322 15.7287C68.6954 15.3511 69.5348 15.1528 70.3863 15.149C71.1505 15.1193 71.9105 15.2743 72.6021 15.6007C73.2205 15.9286 73.7922 16.3377 74.3022 16.8171L74.1102 14.3808V9.89576C74.1102 9.64734 74.2086 9.40905 74.3839 9.23306C74.5592 9.05707 74.7972 8.95773 75.0456 8.95679H78.8264V30.5175C78.8254 30.7653 78.7266 31.0027 78.5513 31.1779C78.3761 31.3531 78.1387 31.452 77.8909 31.4529H74.978L74.6579 29.8808H74.5263C73.9555 30.4511 73.2946 30.9234 72.5701 31.2786C71.8625 31.643 71.079 31.8356 70.2832 31.8406ZM71.4889 27.9887C71.9742 27.9964 72.4541 27.8853 72.8867 27.665C73.3698 27.3912 73.7817 27.0074 74.0888 26.5447V20.0288C73.7106 19.6726 73.2625 19.3988 72.7729 19.225C72.3491 19.0799 71.9047 19.0042 71.4569 19.0009C71.0654 19.0121 70.6819 19.1144 70.3368 19.2996C69.9917 19.4848 69.6945 19.7479 69.4687 20.0679C68.8878 20.7793 68.5985 21.8972 68.6008 23.4219C68.6008 25.0082 68.8534 26.1605 69.3549 26.8897C69.5857 27.2412 69.9035 27.5272 70.2774 27.7198C70.6513 27.9123 71.0686 28.005 71.4889 27.9887Z" fill="#1730B6"/>
<path d="M88.2061 31.8406C87.2057 31.8416 86.2145 31.6509 85.286 31.2786C84.3555 30.9109 83.5087 30.3593 82.7963 29.6568C82.0575 28.9055 81.478 28.0127 81.0927 27.0319C80.6452 25.9005 80.4264 24.6917 80.4489 23.4752C80.4259 22.2587 80.6448 21.0498 81.0927 19.9185C81.4815 18.9402 82.0647 18.0509 82.807 17.3043C83.5185 16.6007 84.3655 16.0489 85.2967 15.6825C86.2237 15.3213 87.2112 15.1402 88.2061 15.149C89.2018 15.1476 90.1885 15.3384 91.1119 15.7109C92.0352 16.0803 92.8747 16.6319 93.5802 17.3328C94.3247 18.0782 94.9093 18.9678 95.2981 19.947C95.7446 21.0787 95.9633 22.2873 95.9419 23.5037C95.9626 24.72 95.7439 25.9285 95.2981 27.0604C94.9084 28.0391 94.324 28.9285 93.5802 29.6745C92.8736 30.3741 92.0344 30.9255 91.1119 31.2964C90.1872 31.6628 89.2006 31.8476 88.2061 31.8406ZM88.2061 28.0207C88.6467 28.0386 89.0837 27.9341 89.4686 27.7188C89.8534 27.5034 90.1711 27.1857 90.3863 26.8007C90.8807 25.9862 91.1261 24.8872 91.1261 23.493C91.1261 22.0988 90.8807 21.0033 90.3863 20.1888C90.1554 19.816 89.8331 19.5084 89.45 19.295C89.0669 19.0817 88.6357 18.9697 88.1972 18.9697C87.7587 18.9697 87.3274 19.0817 86.9443 19.295C86.5612 19.5084 86.2389 19.816 86.008 20.1888C85.5243 21.0033 85.2967 22.1023 85.2967 23.493C85.2967 24.8837 85.535 25.9827 86.008 26.8007C86.224 27.189 86.5443 27.5091 86.9328 27.7247C87.3212 27.9403 87.7623 28.0428 88.2061 28.0207Z" fill="#1730B6"/>
<path d="M105.137 31.8407C104.136 31.841 103.145 31.6503 102.217 31.2787C101.286 30.911 100.439 30.3594 99.7269 29.6568C98.9843 28.9065 98.4011 28.0136 98.0126 27.032C97.5651 25.9006 97.3463 24.6918 97.3688 23.4753C97.3459 22.2588 97.5647 21.0499 98.0126 19.9186C98.4014 18.9403 98.9846 18.051 99.7269 17.3044C100.438 16.6008 101.285 16.049 102.217 15.6826C103.145 15.311 104.136 15.1203 105.137 15.1206C106.132 15.1193 107.119 15.3101 108.042 15.6826C108.966 16.052 109.805 16.6035 110.511 17.3044C111.255 18.0499 111.84 18.9394 112.229 19.9186C112.677 21.0499 112.895 22.2588 112.872 23.4753C112.895 24.6918 112.676 25.9006 112.229 27.032C111.839 28.0107 111.255 28.9001 110.511 29.6462C109.804 30.3457 108.965 30.8971 108.042 31.268C107.12 31.6442 106.133 31.8386 105.137 31.8407ZM105.137 28.0208C105.578 28.0386 106.015 27.934 106.401 27.7188C106.786 27.5035 107.104 27.1858 107.32 26.8008C107.811 25.9863 108.057 24.8873 108.057 23.4931C108.057 22.0989 107.811 21.0034 107.32 20.1889C107.089 19.8162 106.766 19.5086 106.383 19.2953C106 19.082 105.568 18.9701 105.13 18.9701C104.691 18.9701 104.259 19.082 103.876 19.2953C103.493 19.5086 103.17 19.8162 102.939 20.1889C102.458 21.0034 102.227 22.1024 102.227 23.4931C102.227 24.8838 102.469 25.9828 102.939 26.8008C103.155 27.1891 103.475 27.5092 103.863 27.7248C104.252 27.9404 104.693 28.0429 105.137 28.0208Z" fill="#1730B6"/>
<path d="M114.486 30.514V16.4757C114.486 16.2266 114.585 15.9878 114.761 15.8117C114.937 15.6356 115.176 15.5367 115.425 15.5367H118.338L118.658 17.5889H118.793C119.442 16.9425 120.157 16.3667 120.928 15.871C121.756 15.403 122.691 15.1544 123.642 15.1488C124.594 15.1432 125.532 15.3808 126.366 15.839C127.089 16.3318 127.661 17.015 128.02 17.813C128.697 17.1128 129.444 16.4836 130.25 15.935C131.073 15.4003 132.039 15.1263 133.02 15.149C134.73 15.149 135.987 15.7216 136.79 16.8669C137.594 18.0122 137.997 19.5795 138 21.5689V30.5175C137.999 30.7659 137.899 31.0038 137.723 31.1792C137.547 31.3545 137.309 31.4529 137.061 31.4529H133.262V22.177C133.262 21.0247 133.106 20.2315 132.796 19.8047C132.621 19.5824 132.392 19.4072 132.132 19.2948C131.872 19.1825 131.588 19.1365 131.306 19.161C130.513 19.161 129.602 19.6767 128.578 20.701V31.4529H123.858V22.177C123.858 21.0247 123.702 20.2315 123.392 19.8047C123.217 19.5824 122.989 19.4072 122.728 19.2948C122.468 19.1825 122.184 19.1365 121.902 19.161C121.088 19.161 120.188 19.6767 119.206 20.701V31.4529H115.425C115.176 31.4529 114.937 31.354 114.761 31.1779C114.585 31.0018 114.486 30.763 114.486 30.514Z" fill="#1730B6"/>
</svg>
