<svg width="34" height="31" viewBox="0 0 34 31" fill="none" xmlns="http://www.w3.org/2000/svg">
<path d="M21.6982 25.4688V23.2031C21.6982 22.4393 21.0791 21.8203 20.3153 21.8203C19.5515 21.8203 18.9324 22.4393 18.9324 23.2031V25.4688C18.9324 26.5799 18.0279 27.4844 16.9167 27.4844H5.53145C4.42026 27.4844 3.51572 26.5799 3.51572 25.4688V5.53125C3.51572 4.42014 4.42026 3.51562 5.53145 3.51562H16.9167C18.0279 3.51562 18.9324 4.42014 18.9324 5.53125V7.79688C18.9324 8.56066 19.5515 9.17969 20.3153 9.17969C21.0791 9.17969 21.6982 8.56066 21.6982 7.79688V5.53125C21.6982 2.89456 19.5535 0.75 16.9167 0.75H5.53145C2.89467 0.75 0.75 2.89456 0.75 5.53125V25.4688C0.75 28.1054 2.89467 30.25 5.53145 30.25H16.9167C19.5535 30.25 21.6982 28.1054 21.6982 25.4688Z" fill="#9595EE" stroke="#9595EE" stroke-width="0.5"/>
<path d="M25.6918 11.2418L23.1551 13.7786C22.615 14.3187 22.6149 15.1943 23.1551 15.7343C23.6951 16.2744 24.5706 16.2744 25.1105 15.7343C25.1105 15.7343 25.1106 15.7342 25.1106 15.7342L26.4883 14.3566L26.4883 27.3554C26.4883 28.1192 27.1073 28.7383 27.8711 28.7383C28.6349 28.7383 29.2539 28.1192 29.2539 27.3554L29.2539 14.3566L30.6316 15.7342C30.6316 15.7342 30.6317 15.7343 30.6317 15.7343C31.1716 16.2744 32.0472 16.2744 32.5871 15.7343C32.8571 15.4643 32.9922 15.11 32.9922 14.7565C32.9922 14.4028 32.8571 14.0486 32.5871 13.7786L30.0504 11.2418C28.8485 10.0398 26.8937 10.0398 25.6918 11.2418Z" fill="#9595EE" stroke="#9595EE" stroke-width="0.5"/>
</svg>
